<?xml version="1.0" standalone="no"?>
<!DOCTYPE svg PUBLIC "-//W3C//DTD SVG 20010904//EN"
 "http://www.w3.org/TR/2001/REC-SVG-20010904/DTD/svg10.dtd">
<svg version="1.0" xmlns="http://www.w3.org/2000/svg"
 width="512.000000pt" height="512.000000pt" viewBox="0 0 512.000000 512.000000"
 preserveAspectRatio="xMidYMid meet">
<metadata>
Created by potrace 1.16, written by Peter Selinger 2001-2019
</metadata>
<g transform="translate(0.000000,512.000000) scale(0.100000,-0.100000)"
fill="#000000" stroke="none">
<path d="M2514 4716 c-27 -27 -34 -42 -34 -72 0 -49 31 -101 65 -110 39 -10
28 -37 -17 -45 -20 -3 -45 -12 -54 -20 -9 -8 -66 -24 -125 -35 -103 -21 -224
-67 -260 -100 -15 -14 -20 -6 -52 89 l-35 104 29 27 c70 66 9 189 -85 172 -50
-9 -81 -49 -81 -102 0 -50 25 -82 78 -100 30 -10 34 -18 65 -116 l34 -105 -25
-36 c-14 -21 -31 -60 -38 -87 -14 -54 -16 -55 -99 -65 -30 -3 -68 -11 -83 -17
-80 -31 -89 -229 -15 -314 28 -32 34 -34 94 -34 58 0 64 -2 68 -22 23 -109 18
-102 66 -111 25 -4 70 -13 100 -19 l55 -11 -35 -9 c-48 -13 -60 -25 -60 -63
l0 -32 -87 -12 c-173 -23 -263 -43 -288 -63 -29 -23 -75 -108 -101 -187 l-17
-52 -113 3 c-106 3 -114 2 -137 -20 -32 -30 -81 -132 -97 -201 -15 -63 -9
-202 11 -246 7 -16 21 -42 31 -57 17 -25 17 -32 3 -134 -23 -162 -21 -177 21
-224 l36 -39 -37 -15 c-46 -19 -74 -79 -75 -155 0 -60 44 -384 60 -443 6 -21
19 -43 29 -50 18 -13 18 -17 5 -68 -18 -69 -18 -123 0 -163 8 -18 20 -62 26
-100 17 -94 91 -190 134 -174 8 3 20 0 26 -8 6 -7 24 -18 41 -25 25 -11 32
-10 48 4 18 16 22 16 50 2 41 -21 50 -20 63 8 9 22 4 35 -44 113 -80 128 -95
185 -62 231 13 19 19 20 37 11 34 -17 88 -79 100 -113 17 -52 38 -76 63 -76
17 0 28 8 35 27 14 38 2 96 -41 188 -37 82 -74 123 -137 153 -37 18 -40 24
-17 42 13 11 14 33 9 144 -12 258 -31 340 -95 412 -35 41 -36 45 -11 68 11 10
21 36 24 59 3 23 14 74 25 112 l20 70 1 -49 c2 -115 107 -488 155 -551 31 -41
72 -63 172 -95 l72 -23 -28 -24 c-90 -75 -110 -288 -39 -423 18 -36 30 -77 34
-120 11 -113 25 -169 45 -180 16 -9 18 -15 9 -38 -7 -17 -9 -74 -4 -163 l6
-136 -29 -6 c-20 -4 -34 -16 -45 -39 -8 -18 -27 -58 -41 -89 -14 -31 -26 -63
-26 -72 0 -14 -10 -17 -52 -17 -71 0 -231 -20 -241 -30 -28 -26 327 -40 1058
-40 587 1 826 7 953 26 74 11 32 26 -103 37 -123 11 -126 12 -132 37 -10 42
-59 134 -85 157 -13 12 -40 29 -61 38 l-38 16 2 152 c1 84 2 159 1 167 -1 8 5
69 13 134 11 84 22 130 37 154 15 24 23 57 26 107 6 95 -15 158 -74 224 -28
31 -44 58 -44 75 0 25 2 26 55 26 84 0 155 41 155 90 0 39 -10 43 -33 13 -45
-57 -46 -57 -602 -61 l-510 -3 -48 31 c-94 63 -150 148 -166 251 -29 180 -56
540 -67 866 -6 207 -6 208 16 237 13 15 36 34 52 41 l30 12 -87 81 -87 80 55
7 c52 7 59 5 88 -19 17 -15 45 -34 63 -42 27 -14 26 -11 -14 25 -25 22 -41 40
-37 41 4 0 54 -17 110 -37 l102 -37 440 -6 c455 -8 602 -19 645 -49 71 -49
101 -191 102 -476 1 -235 -12 -370 -57 -593 -56 -273 -54 -271 -328 -284 -106
-6 -325 -8 -488 -5 -255 4 -300 7 -332 22 -47 22 -84 65 -96 113 -14 51 -50
305 -61 427 -8 96 -9 94 -5 -45 5 -163 36 -394 59 -439 24 -46 84 -89 140
-101 61 -13 951 -30 1008 -20 54 10 105 61 123 125 54 184 89 551 84 864 -2
110 -1 201 4 201 19 0 46 -43 53 -85 11 -73 -3 -498 -20 -630 -24 -184 -35
-251 -63 -367 l-25 -107 88 -168 c97 -188 108 -203 139 -203 l23 0 -24 -59
c-26 -64 -43 -155 -51 -269 -5 -64 -8 -74 -27 -82 -31 -11 -48 -35 -44 -62 2
-19 11 -24 45 -28 35 -4 41 -8 33 -20 -26 -41 9 -59 65 -35 45 18 45 18 45 1
0 -7 7 -19 15 -26 35 -29 171 65 209 143 30 62 48 162 39 223 -4 30 -2 44 6
44 40 0 25 124 -25 199 -21 32 -24 43 -15 60 18 32 14 46 -54 233 -72 195
-114 290 -143 326 -18 23 -18 25 -1 60 12 25 21 83 29 172 17 219 17 219 49
256 39 43 51 90 51 191 0 60 -6 98 -22 140 -23 63 -75 123 -105 123 -11 0 -30
11 -43 25 -41 44 -172 62 -217 30 -21 -15 -22 -14 -34 27 -23 88 -74 156 -131
174 -12 3 -89 19 -172 33 l-151 27 -3 49 c-4 57 4 64 73 66 28 0 59 4 70 8
l20 8 -20 6 c-11 3 -72 9 -135 13 -129 8 -125 22 6 23 45 1 102 4 128 7 l46 7
0 61 c0 56 2 62 27 74 15 6 44 12 64 12 50 0 95 38 110 93 16 61 7 187 -17
228 -19 32 -25 35 -99 47 -44 7 -81 15 -83 16 -1 2 -7 32 -13 67 -6 35 -15 69
-20 75 -6 8 -4 43 7 103 14 75 20 91 35 91 9 0 27 12 38 26 71 91 -58 206
-140 125 -50 -51 -36 -114 34 -156 15 -9 16 -16 2 -79 -8 -38 -16 -71 -18 -73
-2 -2 -30 12 -62 32 -79 47 -143 70 -248 88 -48 8 -96 22 -106 31 -9 9 -32 19
-49 22 -22 5 -32 12 -32 25 0 11 6 19 14 19 22 0 73 56 79 87 12 62 -47 133
-110 133 -26 0 -43 -8 -69 -34z m108 -31 c14 -32 -4 -55 -43 -55 -36 0 -60 40
-39 65 20 25 69 19 82 -10z m-624 -17 c3 -14 -3 -18 -26 -18 -16 0 -35 -7 -42
-15 -7 -8 -16 -15 -21 -15 -15 0 -10 32 8 52 22 24 76 21 81 -4z m2 -58 c8 -5
11 -10 5 -10 -5 0 -17 5 -25 10 -8 5 -10 10 -5 10 6 0 17 -5 25 -10z m1167
-16 c7 -18 -15 -36 -36 -29 -7 3 -20 0 -28 -6 -21 -18 -27 -2 -9 26 19 29 63
34 73 9z m-506 -169 c53 -28 27 -45 -67 -45 -106 0 -140 20 -91 55 26 19 111
14 158 -10z m-235 -40 c9 -24 74 -39 169 -40 106 0 141 8 150 35 7 23 31 20
145 -17 71 -23 135 -58 190 -104 l25 -21 0 -296 0 -297 -55 -8 c-30 -5 -230
-6 -445 -4 -367 5 -546 16 -587 38 -22 12 -23 35 -3 43 31 12 48 76 49 186 1
107 -17 183 -49 210 -11 9 -10 21 7 71 11 33 28 64 37 67 27 11 111 64 111 69
0 3 -7 3 -15 -1 -30 -11 -14 4 26 24 46 24 170 59 212 59 15 1 30 -5 33 -14z
m-437 -318 c18 -23 31 -146 20 -197 -18 -84 -13 -80 -88 -80 l-69 0 14 38 c18
50 17 128 -1 188 -8 27 -15 50 -15 51 0 4 47 10 86 12 24 0 46 -5 53 -12z
m1219 -132 c-2 -98 -7 -148 -15 -157 -10 -10 -13 15 -13 122 0 74 -3 145 -6
158 -5 18 -2 22 16 22 22 0 22 -1 18 -145z m66 119 c8 -20 8 -148 0 -196 -4
-21 -12 -38 -18 -38 -9 0 -13 37 -14 125 -2 102 0 125 12 125 8 0 17 -7 20
-16z m57 -45 c10 -44 3 -142 -12 -169 -5 -9 -9 18 -9 70 0 47 -3 103 -6 125
-9 55 14 34 27 -26z m-1490 -22 c13 -49 4 -119 -19 -148 -17 -20 -19 -20 -32
-3 -20 23 -21 174 -1 198 19 22 38 5 52 -47z m632 -495 l317 -4 0 -39 c0 -35
-2 -39 -32 -44 -85 -14 -224 -25 -329 -25 -102 0 -126 3 -204 30 -93 31 -105
40 -105 79 0 18 4 22 18 16 9 -5 160 -10 335 -13z m457 -27 c0 -32 -2 -35 -30
-35 -28 0 -30 3 -30 35 0 32 2 35 30 35 28 0 30 -3 30 -35z m-1017 -146 l78
-72 -30 -18 c-44 -27 -51 -47 -52 -161 l-1 -103 -18 85 c-10 47 -24 99 -31
115 -7 17 -11 35 -10 40 2 6 0 7 -4 4 -3 -4 -18 4 -32 17 -14 13 -38 24 -54
24 -31 0 -85 -40 -94 -71 -5 -15 -10 -18 -17 -11 -20 20 52 112 100 127 18 5
30 -1 59 -32 27 -28 33 -31 23 -13 -21 41 -52 70 -75 70 -12 0 -39 -11 -59
-25 -31 -21 -35 -22 -26 -6 28 53 94 97 150 100 8 1 50 -31 93 -70z m-81 -162
c37 -74 68 -256 88 -532 31 -413 54 -597 82 -653 12 -24 40 -64 61 -88 21 -24
35 -44 30 -44 -17 0 -232 59 -266 73 -29 13 -38 25 -57 73 -62 167 -137 499
-128 567 3 24 4 24 40 -18 33 -38 39 -53 49 -122 16 -122 70 -375 84 -404 8
-14 20 -30 27 -36 16 -13 125 -46 137 -41 12 4 -44 136 -70 164 -12 13 -43 31
-70 39 -38 13 -49 22 -53 43 -12 59 -35 200 -41 250 -6 49 -5 52 15 52 35 0
67 46 91 133 21 70 24 103 23 227 -1 170 -24 276 -75 350 -24 33 -26 40 -9 25
12 -11 31 -37 42 -58z m-462 -34 c-8 -3 -22 -11 -30 -17 -13 -10 -13 -9 -1 7
7 9 21 17 30 16 13 0 14 -1 1 -6z m2228 -14 c71 -10 97 -36 124 -122 38 -126
11 -325 -52 -382 -9 -9 -34 -19 -55 -22 l-38 -6 7 34 c3 19 9 97 12 174 7 154
-3 216 -51 303 -13 23 -19 39 -12 35 6 -4 36 -10 65 -14z m-1975 -6 c27 -17
51 -103 55 -202 5 -103 -11 -217 -28 -206 -5 3 -15 -3 -22 -13 -7 -11 -35 -31
-63 -46 -47 -26 -47 -27 1 -12 19 6 19 3 -10 -113 -26 -102 -34 -121 -52 -125
-43 -11 -126 15 -153 48 -8 9 -22 16 -33 16 -17 0 -19 5 -14 33 3 17 8 55 12
83 6 49 7 50 36 46 25 -4 29 -8 24 -28 -4 -13 -9 -45 -11 -72 -4 -36 -1 -29
13 29 11 48 28 88 44 107 79 94 84 336 9 451 l-15 24 99 -7 c55 -4 103 -10
108 -13z m-210 -71 c58 -99 5 -373 -72 -372 -14 1 -14 2 2 14 10 8 17 26 17
45 0 17 5 31 10 31 6 0 10 -5 10 -12 0 -9 3 -9 11 -1 17 17 24 190 9 242 -6
24 -22 54 -36 68 l-24 24 27 -3 c18 -2 33 -14 46 -36z m376 7 c26 -76 4 -320
-35 -372 -14 -19 -16 -20 -9 -2 3 11 11 63 17 116 10 92 3 198 -18 267 -5 18
-2 22 14 22 14 0 24 -10 31 -31z m-439 -29 c7 -17 13 -66 13 -110 0 -65 -4
-85 -23 -112 -12 -18 -19 -24 -15 -13 27 73 29 175 5 190 -17 11 -30 -34 -33
-115 -2 -74 0 -83 21 -100 32 -26 29 -50 -7 -50 -38 0 -51 36 -51 140 0 148
56 253 90 170z m2435 -32 c35 -74 34 -173 0 -243 -16 -34 -22 -40 -17 -20 11
46 7 235 -5 278 -16 52 -6 46 22 -15z m-56 -508 c-11 -160 -18 -202 -32 -197
-14 4 -14 -5 -3 165 7 105 12 134 25 141 9 5 16 9 17 8 0 -1 -3 -54 -7 -117z
m-66 48 c-2 -24 -7 -79 -11 -122 l-7 -80 -52 -2 c-41 -1 -53 2 -53 13 0 8 9
17 20 20 23 6 27 23 5 23 -8 0 -15 7 -15 15 0 9 9 15 25 15 14 0 25 5 25 10 0
6 -9 10 -20 10 -11 0 -20 7 -20 15 0 9 9 15 25 15 30 0 33 16 5 23 -11 3 -20
10 -20 15 0 6 9 14 20 17 11 3 20 11 20 16 0 5 -9 9 -20 9 -11 0 -20 4 -20 9
0 10 27 17 71 20 25 1 26 -1 22 -41z m-2331 -169 c-7 -35 -10 -40 -15 -23 -7
20 9 82 18 72 3 -2 1 -24 -3 -49z m126 -97 c5 -15 -8 -15 -42 -2 -17 6 -26 17
-26 31 0 21 0 21 32 2 17 -10 33 -24 36 -31z m2242 -8 c0 -8 -4 -12 -10 -9 -5
3 -10 10 -10 16 0 5 5 9 10 9 6 0 10 -7 10 -16z m-2376 -43 c-18 -11 -39 -30
-48 -42 -9 -13 -16 -18 -16 -12 0 18 59 73 78 73 11 0 5 -7 -14 -19z m2374
-61 c22 -62 -40 -131 -117 -129 l-46 1 50 13 c88 25 118 86 70 143 -33 40 -32
47 5 21 16 -12 33 -34 38 -49z m-2234 50 c39 -14 31 -30 -15 -30 -41 0 -41 0
-35 -32 7 -37 38 -68 69 -68 27 0 57 28 58 54 0 17 3 15 14 -10 16 -36 35
-203 35 -304 l0 -68 -47 14 c-81 25 -165 12 -214 -32 -15 -13 -17 -13 -22 8
-10 39 -37 270 -37 313 0 50 35 112 79 142 36 25 74 29 115 13z m2176 -21 c0
-8 -58 -39 -75 -39 -18 0 0 22 28 34 40 18 47 19 47 5z m128 -152 c10 -23 43
-107 72 -187 29 -80 57 -149 61 -155 5 -5 9 -17 9 -28 0 -15 -4 -17 -22 -11
-61 21 -159 -2 -225 -52 -18 -14 -33 -21 -33 -15 0 18 49 49 140 88 49 21 90
43 90 50 0 17 -100 287 -111 298 -14 14 -12 7 36 -125 25 -68 45 -133 43 -144
-3 -20 -56 -52 -113 -70 -20 -6 -29 14 -133 283 -3 8 -1 12 4 8 17 -10 90 29
125 67 19 19 35 36 36 36 1 0 11 -19 21 -43z m-253 -48 c27 -10 36 -24 74
-123 24 -61 54 -130 67 -153 l22 -42 -31 -20 -31 -20 -43 82 c-77 144 -96 190
-101 239 -5 52 -3 53 43 37z m-1946 -258 c54 -28 53 -44 -1 -25 -30 11 -61 14
-101 10 -62 -6 -89 -17 -124 -49 -21 -18 -23 -19 -23 -3 0 83 142 121 249 67z
m580 -43 c54 -56 71 -101 71 -187 0 -27 5 -53 10 -56 22 -14 4 150 -25 218 -6
14 -4 16 11 10 18 -6 18 -6 0 15 -27 31 -6 28 72 -12 115 -58 151 -119 152
-254 0 -108 -14 -138 -71 -147 -50 -9 -145 2 -181 21 -15 8 -42 35 -60 60 -32
45 -33 48 -30 135 6 131 -35 233 -85 215 -13 -4 -11 0 6 14 40 35 74 26 130
-32z m754 10 c-30 -132 -71 -216 -127 -266 -45 -39 -91 -52 -188 -52 -86 0
-91 5 -62 61 8 17 23 68 32 112 l17 82 153 3 c126 2 152 5 152 17 0 13 -23 15
-139 15 -183 0 -186 -1 -195 -83 -3 -36 -12 -82 -20 -103 l-13 -38 -6 62 c-4
35 -17 94 -30 132 l-23 70 180 3 c100 1 202 3 228 5 43 2 46 1 41 -20z m-870
-45 c27 -46 34 -166 14 -216 -15 -34 -18 -37 -38 -27 -48 26 -73 160 -44 235
20 54 40 56 68 8z m-528 17 c-11 -5 -31 -8 -45 -8 l-25 0 25 8 c14 4 34 8 45
8 l20 1 -20 -9z m1635 -55 c20 -72 19 -185 -3 -218 -26 -40 -65 -61 -116 -63
-35 -2 -47 -7 -55 -23 -14 -31 -31 -26 -70 22 l-36 44 35 82 c46 112 58 128
103 141 22 5 57 23 78 39 21 15 42 27 45 25 3 -2 12 -24 19 -49z m-1562 -62
l3 -73 -30 0 c-43 0 -144 -34 -182 -60 l-32 -23 5 76 c7 104 32 132 132 147
100 15 101 15 104 -67z m1623 12 c25 -54 24 -135 -1 -185 -31 -61 -78 -91
-152 -97 -46 -3 -59 -2 -48 6 8 6 23 11 33 11 30 0 94 38 116 68 29 41 34 95
18 185 -13 69 -12 76 1 65 8 -7 23 -31 33 -53z m657 60 c-7 -8 -112 -34 -117
-29 -2 2 7 7 20 12 13 5 31 12 39 15 19 7 65 9 58 2z m-2136 -96 l39 -41 -25
-19 c-13 -10 -29 -19 -34 -19 -21 0 -72 59 -72 82 0 53 40 51 92 -3z m2203
-11 c43 -97 44 -94 -27 -103 -111 -13 -108 -14 -125 30 -30 80 -29 93 8 110
19 8 53 14 77 15 42 0 43 -1 67 -52z m-194 -49 c22 -22 19 -46 -13 -91 -19
-27 -20 -27 -49 -12 -20 10 -29 20 -25 30 3 9 6 21 6 28 0 17 38 66 51 66 5 0
18 -9 30 -21z m-1967 -28 c3 -5 -1 -12 -10 -15 -22 -9 -24 -8 -24 9 0 16 25
21 34 6z m-234 -25 c0 -20 -19 -31 -32 -18 -6 6 -7 15 -4 21 10 16 36 13 36
-3z m-76 -31 c7 -18 -2 -45 -15 -45 -5 0 -12 7 -15 15 -7 18 2 45 15 45 5 0
11 -7 15 -15z m337 -12 c5 -15 9 -38 7 -52 -3 -24 -5 -23 -26 17 -22 41 -22
62 -1 62 5 0 14 -12 20 -27z m235 -13 c11 0 25 5 32 12 9 9 12 9 12 -3 0 -41
-46 -51 -77 -16 -31 34 -39 55 -11 30 13 -13 33 -23 44 -23z m1892 -3 c2 -10
-3 -17 -12 -17 -10 0 -16 9 -16 21 0 24 23 21 28 -4z m-2528 -17 c0 -16 -4
-30 -10 -30 -5 0 -10 14 -10 30 0 17 5 30 10 30 6 0 10 -13 10 -30z m154 21
c3 -4 -1 -17 -9 -27 -15 -19 -15 -19 -30 0 -17 22 -11 36 15 36 10 0 21 -4 24
-9z m1227 -282 c8 -13 14 -46 15 -74 0 -27 4 -99 8 -160 l7 -110 -30 -17 c-18
-10 -33 -28 -37 -45 -4 -15 -17 -46 -29 -68 -13 -22 -26 -52 -29 -67 -11 -50
-40 -35 -70 36 -32 74 -85 141 -120 150 l-24 6 4 172 c3 167 9 266 20 375 l5
52 67 -5 c37 -3 92 -2 122 3 l55 8 11 -116 c7 -64 18 -127 25 -140z m102 214
c48 -55 79 -66 161 -58 39 4 84 13 100 21 38 18 36 20 36 -23 0 -52 -25 -152
-41 -169 -8 -7 -47 -16 -87 -20 l-72 -7 0 34 c0 19 -5 41 -10 49 -7 11 -10 4
-10 -27 0 -24 -4 -43 -8 -43 -11 0 -64 58 -85 92 -10 15 -28 30 -41 34 -26 6
-36 40 -36 121 0 42 0 42 32 36 18 -3 44 -21 61 -40z m795 18 c3 -20 1 -22
-20 -16 -30 10 -32 11 -24 30 9 24 40 14 44 -14z m106 13 c3 -9 6 -34 6 -55 0
-36 -2 -40 -20 -35 -11 3 -29 9 -40 12 -25 7 -25 20 0 62 21 35 44 42 54 16z
m-2294 -35 c0 -12 -7 -19 -20 -19 -22 0 -29 35 -7 43 18 6 27 -2 27 -24z m640
15 c8 -8 33 -26 56 -40 50 -29 158 -42 217 -26 l37 10 0 -33 c0 -61 -21 -139
-42 -157 -14 -12 -37 -18 -73 -18 -78 0 -102 12 -114 57 -6 21 -18 48 -26 61
-30 42 -85 20 -100 -41 -14 -55 -44 -40 -56 29 -14 84 -11 144 6 144 12 0 15
-18 17 -92 l2 -93 3 89 c3 77 7 91 26 107 27 23 31 23 47 3z m1810 -39 c0 -30
-4 -45 -13 -45 -22 0 -37 23 -37 57 0 29 3 33 25 33 23 0 25 -4 25 -45z
m-2349 -2 c10 -27 6 -53 -9 -53 -11 0 -42 66 -35 74 14 14 34 4 44 -21z m-171
-3 c0 -11 -6 -20 -14 -20 -7 0 -16 9 -19 20 -4 15 0 20 14 20 12 0 19 -7 19
-20z m2238 -9 c11 -7 11 -14 -1 -43 -20 -47 -37 -57 -37 -21 0 34 10 73 19 73
3 0 12 -4 19 -9z m-2141 -23 c19 -24 22 -47 8 -58 -11 -9 -17 -6 -30 14 -25
38 -4 77 22 44z m-68 -49 c23 -31 14 -31 -21 -1 -10 8 -15 19 -12 23 7 13 8
12 33 -22z m2305 25 c19 -7 8 -34 -31 -76 -21 -22 -29 -25 -48 -16 l-23 10 31
44 c31 44 41 49 71 38z m-2114 -24 c9 -17 8 -20 -8 -20 -22 0 -46 23 -35 33
12 13 32 7 43 -13z m2184 -6 c13 -5 13 -10 5 -27 -19 -36 -50 -66 -64 -61 -10
4 -7 17 13 49 15 25 28 45 29 45 1 0 8 -3 17 -6z m96 -14 c0 -24 -20 -70 -31
-70 -17 0 -18 19 -4 54 17 39 35 48 35 16z m-2340 -31 c16 -29 5 -35 -26 -14
-21 13 -24 19 -13 26 21 13 27 11 39 -12z m583 -39 l6 -35 -14 30 c-16 34 -20
64 -6 50 4 -6 11 -26 14 -45z m-488 29 c11 -17 -1 -21 -15 -4 -8 9 -8 15 -2
15 6 0 14 -5 17 -11z m1155 -8 c0 -11 -4 -23 -10 -26 -6 -4 -10 5 -10 19 0 14
5 26 10 26 6 0 10 -9 10 -19z m805 -20 c7 -12 -26 -31 -54 -31 -28 0 -27 18 2
30 29 12 45 12 52 1z m211 -27 c4 -11 -76 -68 -84 -59 -3 3 10 21 28 40 33 34
51 40 56 19z m-122 -13 c7 -11 -11 -25 -50 -39 -28 -9 -31 -8 -27 8 7 28 65
51 77 31z m-745 -81 c72 -20 152 -8 179 27 10 14 12 11 12 -23 0 -21 -3 -83
-7 -136 l-6 -98 -108 0 c-59 0 -110 4 -113 9 -3 5 -10 50 -15 100 -10 89 -37
161 -62 161 -5 0 -1 -12 8 -27 14 -21 19 -53 22 -139 3 -107 2 -113 -19 -124
-12 -6 -23 -10 -25 -8 -2 2 -7 70 -11 151 -6 133 -5 149 11 167 17 19 18 19
58 -15 22 -19 57 -40 76 -45z m-832 39 c16 -14 44 -32 63 -40 44 -17 185 -18
202 -1 26 26 30 10 24 -90 -10 -151 2 -138 -137 -138 -120 0 -120 0 -115 23
l6 22 -11 -22 c-22 -43 -29 -23 -29 82 0 95 -12 155 -30 155 -4 0 -5 -62 -2
-138 4 -117 2 -139 -11 -151 -9 -7 -20 -10 -26 -7 -5 3 -12 71 -16 151 -7 129
-6 148 9 164 22 24 39 21 73 -10z m356 -353 c36 -36 77 -113 77 -146 0 -19 -6
-20 -207 -20 -115 0 -213 4 -218 8 -11 7 -39 69 -50 108 -6 25 28 61 71 74 16
4 88 9 161 9 l132 1 34 -34z m740 14 c26 -21 70 -103 81 -152 l6 -28 -189 0
-190 0 -11 53 c-6 30 -20 70 -31 91 -26 49 -16 52 182 55 113 1 129 -1 152
-19z m-353 -85 c17 -20 26 -95 11 -95 -6 0 -11 4 -11 9 0 4 -30 11 -66 14 -37
3 -70 10 -74 17 -12 20 1 50 24 55 11 2 30 6 41 8 41 9 63 7 75 -8z m-786 -29
c25 -53 22 -58 -31 -51 -112 14 -113 14 -113 40 0 31 24 44 81 45 43 0 48 -2
63 -34z"/>
<path d="M2344 4300 c-81 -9 -139 -32 -160 -66 -23 -34 -33 -131 -35 -305 0
-117 3 -164 14 -191 16 -37 51 -68 77 -68 8 0 0 9 -18 20 -18 11 -40 36 -48
55 -27 65 -13 400 20 463 24 47 70 62 228 73 217 16 499 -2 588 -37 l35 -14
-23 20 c-31 26 -80 38 -199 50 -113 11 -374 11 -479 0z"/>
<path d="M2277 4156 c-33 -16 -57 -73 -57 -133 0 -44 5 -58 29 -85 l29 -33
357 0 357 0 30 34 c28 32 30 38 26 98 -3 56 -8 68 -36 96 l-32 32 -340 1
c-228 0 -348 -3 -363 -10z m167 -76 c21 -20 16 -50 -9 -50 -9 0 -18 7 -21 15
-5 11 -10 12 -24 3 -19 -12 -50 -5 -50 12 0 5 9 19 21 31 23 23 52 19 83 -11z
m481 0 c19 -21 14 -50 -9 -50 -7 0 -16 7 -20 15 -4 13 -9 13 -24 4 -20 -13
-52 -6 -52 10 0 39 75 54 105 21z m-568 -107 c9 -7 28 -13 42 -13 22 -1 24 -2
9 -11 -24 -13 -70 11 -86 46 -18 38 -15 55 3 20 9 -16 23 -36 32 -42z m471 3
c15 -13 32 -17 58 -14 32 4 34 3 18 -9 -11 -8 -30 -11 -44 -8 -30 7 -70 49
-69 73 0 14 2 13 8 -3 5 -11 18 -28 29 -39z"/>
<path d="M2282 3828 c-7 -7 -12 -27 -12 -44 0 -63 8 -64 353 -64 193 0 316 4
328 10 22 12 27 78 7 98 -17 17 -659 17 -676 0z m665 -48 c8 -43 -2 -45 -293
-47 -153 0 -292 1 -311 4 -34 6 -59 34 -48 53 4 7 123 9 328 8 277 -3 322 -5
324 -18z"/>
<path d="M1796 4011 c-4 -6 -9 -40 -13 -75 -5 -57 -3 -66 12 -72 26 -10 35 14
33 85 -3 60 -17 87 -32 62z"/>
<path d="M1372 2085 c0 -27 3 -75 8 -105 l7 -55 1 45 c0 25 -4 72 -8 105 l-7
60 -1 -50z"/>
<path d="M1317 2092 c-9 -10 -17 -25 -17 -33 1 -10 4 -9 14 4 12 16 14 16 20
1 3 -8 6 -32 6 -52 0 -20 5 -44 11 -52 8 -11 9 5 5 59 -6 83 -15 100 -39 73z"/>
<path d="M2130 1447 c0 -27 28 -89 53 -115 37 -40 78 -55 149 -56 76 -1 96 10
73 40 -11 13 -14 14 -13 4 4 -20 -38 -24 -106 -10 -59 12 -99 46 -134 115 -13
23 -21 33 -22 22z"/>
<path d="M1974 1595 c-13 -71 20 -151 52 -124 30 25 5 159 -30 159 -9 0 -18
-13 -22 -35z"/>
<path d="M2837 900 c3 -11 7 -20 9 -20 2 0 4 9 4 20 0 11 -4 20 -9 20 -5 0 -7
-9 -4 -20z"/>
<path d="M2060 911 c0 -11 5 -23 10 -26 6 -4 10 5 10 19 0 14 -4 26 -10 26 -5
0 -10 -9 -10 -19z"/>
<path d="M2170 626 c0 -4 6 -17 14 -29 8 -12 18 -43 21 -69 4 -27 12 -48 17
-48 18 0 -14 121 -38 140 -7 7 -14 9 -14 6z"/>
<path d="M1677 4410 c4 -22 0 -36 -12 -50 -10 -11 -16 -22 -13 -25 3 -3 35 -7
72 -10 69 -4 72 -2 39 37 -11 12 -12 21 -4 37 15 27 15 28 -18 23 -16 -2 -38
1 -50 7 -19 11 -20 9 -14 -19z"/>
<path d="M3490 4405 c0 -8 -12 -20 -27 -26 -25 -10 -26 -12 -9 -18 10 -4 24
-18 32 -32 13 -24 14 -24 20 -2 3 11 15 24 26 26 22 6 16 27 -8 27 -8 0 -14 6
-14 14 0 8 -4 18 -10 21 -5 3 -10 -1 -10 -10z"/>
<path d="M1772 4201 c3 -49 14 -58 43 -37 19 15 19 16 -13 48 l-33 33 3 -44z"/>
<path d="M3395 4147 c0 -29 3 -33 23 -29 17 3 22 11 22 33 0 23 -4 29 -22 29
-19 0 -23 -5 -23 -33z"/>
<path d="M1192 4001 c-8 -4 -12 -19 -10 -32 4 -29 45 -34 61 -7 19 30 -19 60
-51 39z"/>
<path d="M3565 3940 c3 -5 12 -10 20 -10 8 0 17 5 20 10 4 6 -5 10 -20 10 -15
0 -24 -4 -20 -10z"/>
<path d="M1510 3920 c0 -5 16 -10 35 -10 19 0 35 5 35 10 0 6 -16 10 -35 10
-19 0 -35 -4 -35 -10z"/>
<path d="M3556 3862 c17 -17 21 -17 42 -4 12 8 22 16 22 18 0 2 -19 4 -42 4
-41 0 -41 0 -22 -18z"/>
<path d="M1534 3861 c-14 -14 3 -21 56 -21 46 0 60 3 60 15 0 12 -12 14 -56
12 -31 -1 -58 -4 -60 -6z"/>
<path d="M1327 3699 c-13 -8 -18 -22 -17 -52 0 -23 -2 -54 -6 -69 -8 -35 33
-66 65 -48 34 18 45 48 28 74 -10 15 -12 28 -6 37 13 21 11 36 -7 53 -18 18
-32 20 -57 5z m51 -117 c3 -18 -1 -22 -22 -22 -19 0 -26 5 -26 18 0 39 43 43
48 4z"/>
<path d="M1560 3571 c0 -16 -6 -21 -24 -21 -14 0 -28 -4 -31 -10 -4 -6 7 -10
24 -10 26 0 31 -4 31 -25 0 -14 5 -25 10 -25 6 0 10 12 10 26 0 20 4 24 19 19
11 -3 22 -1 26 4 3 6 -6 13 -20 17 -14 3 -25 12 -25 19 0 8 -4 17 -10 20 -5 3
-10 -3 -10 -14z"/>
<path d="M3432 3578 c-19 -19 -14 -45 10 -62 29 -20 34 -20 58 4 24 24 25 34
4 54 -18 19 -55 21 -72 4z"/>
<path d="M3720 3465 c-10 -12 -10 -18 0 -30 16 -19 39 -19 46 0 6 15 -11 45
-26 45 -4 0 -13 -7 -20 -15z"/>
<path d="M3570 3431 c0 -6 5 -13 10 -16 8 -5 7 -11 -1 -21 -15 -18 -5 -29 18
-19 10 5 24 7 31 6 6 -1 12 3 12 9 0 5 -4 10 -9 10 -5 0 -7 10 -3 23 5 19 3
20 -10 9 -11 -9 -18 -10 -23 -2 -8 13 -25 13 -25 1z"/>
<path d="M1437 3364 c-9 -10 2 -24 19 -24 8 0 14 7 14 15 0 15 -21 21 -33 9z"/>
<path d="M1275 3340 c3 -5 8 -10 11 -10 2 0 4 5 4 10 0 6 -5 10 -11 10 -5 0
-7 -4 -4 -10z"/>
<path d="M2543 3303 c70 -2 184 -2 255 0 70 1 12 3 -128 3 -140 0 -198 -2
-127 -3z"/>
<path d="M1076 3264 c-33 -32 -8 -84 39 -84 15 0 31 10 41 25 15 23 15 27 0
50 -19 29 -56 33 -80 9z"/>
<path d="M3861 3241 c-20 -15 -21 -19 -7 -24 9 -4 16 -14 16 -24 0 -15 2 -15
21 4 19 19 20 23 7 41 -13 20 -15 20 -37 3z"/>
<path d="M3319 3178 c26 -46 41 -202 41 -423 0 -199 14 -246 25 -89 13 173
-12 444 -48 507 -11 20 -24 37 -29 37 -4 0 1 -15 11 -32z"/>
<path d="M2067 3162 c-29 -32 -37 -72 -36 -175 l2 -102 7 111 c8 110 15 138
46 168 8 9 11 16 6 16 -5 0 -16 -8 -25 -18z"/>
<path d="M3262 3153 c2 -20 8 -28 23 -28 31 0 28 49 -3 53 -20 3 -23 0 -20
-25z"/>
<path d="M2973 3099 c-81 -15 -164 -71 -218 -149 l-28 -40 -67 67 c-85 87
-142 116 -236 121 -91 5 -155 -21 -217 -87 -187 -199 -67 -528 303 -836 96
-79 229 -175 245 -175 19 0 231 187 335 296 163 170 220 277 228 425 12 242
-144 412 -345 378z m-433 -77 c27 -6 80 -52 121 -105 22 -29 46 -59 53 -68 7
-8 12 -23 10 -31 -1 -10 8 -19 23 -23 21 -5 24 -11 21 -38 -2 -24 1 -33 14
-35 20 -4 51 22 40 33 -4 5 -1 5 6 1 6 -4 19 0 28 8 18 18 34 21 34 6 0 -5 7
-10 15 -10 13 0 11 5 -5 22 -12 13 -19 31 -16 40 2 11 -1 18 -9 18 -8 0 -11 8
-8 20 7 28 -15 54 -34 39 -7 -7 -16 -9 -20 -5 -14 13 95 105 139 116 82 23
168 -11 155 -60 -3 -11 -2 -18 2 -17 3 1 16 -8 29 -20 19 -20 22 -34 22 -93 0
-70 -5 -81 -28 -58 -9 9 -12 9 -12 0 0 -7 -13 -11 -32 -9 -18 1 -33 -2 -33 -8
0 -5 4 -9 8 -7 5 1 6 -2 2 -8 -3 -5 -13 -10 -21 -10 -8 0 -14 -10 -14 -22 0
-16 -3 -19 -8 -10 -9 14 -42 6 -42 -10 0 -7 -4 -7 -12 0 -7 5 -24 12 -38 14
-17 2 -25 9 -24 21 1 12 -5 17 -22 17 -24 0 -32 -14 -14 -25 6 -3 10 -11 10
-16 0 -6 -4 -7 -10 -4 -5 3 -10 2 -10 -3 0 -12 -38 -23 -45 -12 -3 4 4 10 15
13 25 6 27 27 3 22 -10 -2 -23 -4 -29 -4 -6 -1 -10 -11 -10 -23 1 -21 -3 -23
-52 -23 -34 1 -47 -2 -37 -8 18 -10 11 -27 -11 -27 -8 0 -13 4 -10 9 3 5 -17
8 -46 7 -42 -2 -53 -6 -59 -24 -5 -12 -15 -22 -23 -22 -16 0 -12 22 8 50 6 8
-1 5 -15 -5 -15 -11 -24 -24 -21 -29 3 -5 -3 -6 -13 -3 -12 5 -25 -1 -40 -17
-24 -26 -45 -19 -45 15 0 9 -11 24 -25 33 -26 17 -39 21 -32 9 3 -5 -1 -14 -9
-20 -9 -9 -15 -10 -20 -2 -3 6 0 16 7 21 10 7 9 8 -6 3 -39 -13 -55 -9 -55 15
0 11 -7 23 -15 26 -13 5 -13 9 -3 22 11 13 10 14 -9 3 -13 -6 -23 -16 -23 -21
0 -6 -5 -10 -12 -10 -6 0 -3 9 7 20 10 11 14 20 9 20 -5 0 -3 4 5 9 9 6 15 28
16 58 l2 48 -12 -34 c-13 -40 -29 -49 -51 -30 -34 28 7 142 71 197 29 26 44
32 81 32 53 0 82 -13 94 -43 7 -17 9 -18 9 -4 1 9 6 17 11 17 6 0 10 9 10 19
0 23 30 56 39 44 3 -4 13 -9 21 -11z m260 -277 c0 -8 -7 -15 -15 -15 -13 0
-14 3 -3 15 16 18 18 18 18 0z"/>
<path d="M3023 2993 c9 -2 23 -2 30 0 6 3 -1 5 -18 5 -16 0 -22 -2 -12 -5z"/>
<path d="M2872 2938 c-7 -7 -12 -19 -12 -27 0 -19 23 1 26 24 3 18 1 18 -14 3z"/>
<path d="M2910 2811 c0 -6 4 -13 10 -16 6 -3 7 1 4 9 -7 18 -14 21 -14 7z"/>
<path d="M2730 2786 c0 -2 7 -7 16 -10 8 -3 12 -2 9 4 -6 10 -25 14 -25 6z"/>
<path d="M2915 2710 c-3 -5 -1 -10 4 -10 6 0 11 5 11 10 0 6 -2 10 -4 10 -3 0
-8 -4 -11 -10z"/>
<path d="M2392 2656 c7 -8 15 -12 17 -11 5 6 -10 25 -20 25 -5 0 -4 -6 3 -14z"/>
<path d="M1100 2899 c0 -5 5 -7 10 -4 6 3 10 8 10 11 0 2 -4 4 -10 4 -5 0 -10
-5 -10 -11z"/>
<path d="M955 2827 c-20 -16 -15 -44 11 -54 23 -9 51 23 38 44 -14 23 -27 26
-49 10z m29 -28 c-3 -5 -10 -7 -15 -3 -5 3 -7 10 -3 15 3 5 10 7 15 3 5 -3 7
-10 3 -15z"/>
<path d="M4106 2807 c-11 -12 -14 -22 -8 -26 5 -3 12 -15 14 -26 l5 -20 8 20
c5 11 13 23 19 28 8 5 8 9 0 15 -6 4 -13 12 -15 17 -2 6 -12 2 -23 -8z"/>
<path d="M2033 2695 c0 -27 2 -38 4 -22 2 15 2 37 0 50 -2 12 -4 0 -4 -28z"/>
<path d="M1022 2508 c-26 -26 1 -65 38 -53 16 5 20 14 18 33 -3 30 -35 41 -56
20z"/>
<path d="M3317 2375 c-14 -91 -59 -269 -78 -307 -26 -51 -64 -68 -194 -89
-121 -19 -86 -25 58 -9 93 9 126 24 153 65 20 31 76 305 72 354 -3 34 -3 34
-11 -14z"/>
<path d="M3915 2349 c-4 -6 -14 -8 -22 -5 -8 4 -13 1 -11 -5 5 -14 68 -41 68
-29 0 6 -5 10 -11 10 -6 0 -9 9 -6 20 5 21 -7 27 -18 9z"/>
<path d="M3905 2289 c-10 -15 3 -25 16 -12 7 7 7 13 1 17 -6 3 -14 1 -17 -5z"/>
<path d="M853 2154 c-16 -41 46 -73 67 -34 9 16 8 25 -1 36 -16 19 -58 18 -66
-2z m47 -12 c0 -13 -12 -22 -22 -16 -10 6 -1 24 13 24 5 0 9 -4 9 -8z"/>
<path d="M4110 2006 c0 -9 -7 -16 -15 -16 -8 0 -19 -9 -25 -19 -15 -29 -12
-33 11 -21 23 13 42 4 21 -9 -9 -5 -11 -17 -6 -34 8 -34 17 -34 38 -2 15 23
15 26 1 31 -21 8 -19 22 4 26 18 3 18 5 -5 31 -16 19 -24 23 -24 13z"/>
<path d="M2973 1853 c20 -2 54 -2 75 0 20 2 3 4 -38 4 -41 0 -58 -2 -37 -4z"/>
<path d="M1110 1701 c0 -5 5 -13 10 -16 6 -3 10 -15 10 -27 0 -16 3 -18 14 -9
7 6 21 8 31 5 13 -5 16 -3 11 7 -3 8 -9 22 -12 32 -7 18 -24 24 -24 7 0 -7 -6
-7 -20 0 -12 7 -20 7 -20 1z"/>
<path d="M3367 1422 c-15 -16 -15 -19 3 -29 26 -17 49 9 27 31 -13 13 -17 13
-30 -2z"/>
</g>
</svg>