<?xml version="1.0" standalone="no"?>
<!DOCTYPE svg PUBLIC "-//W3C//DTD SVG 20010904//EN"
 "http://www.w3.org/TR/2001/REC-SVG-20010904/DTD/svg10.dtd">
<svg version="1.0" xmlns="http://www.w3.org/2000/svg"
 width="512.000000pt" height="512.000000pt" viewBox="0 0 512.000000 512.000000"
 preserveAspectRatio="xMidYMid meet">
<metadata>
Created by potrace 1.16, written by Peter Selinger 2001-2019
</metadata>
<g transform="translate(0.000000,512.000000) scale(0.100000,-0.100000)"
fill="#000000" stroke="none">
<path d="M385 4930 c-3 -5 -19 -10 -36 -10 -26 0 -29 -3 -29 -30 0 -28 -2 -30
-40 -30 -39 0 -40 1 -40 35 0 24 -5 35 -15 35 -13 0 -15 -37 -15 -269 0 -148
-4 -281 -9 -294 -6 -14 -6 -38 -2 -54 7 -26 12 -28 59 -31 l52 -3 0 -115 c0
-69 -4 -114 -10 -114 -5 0 -10 -7 -10 -15 0 -13 31 -15 218 -15 l217 0 -3 120
c-3 82 0 125 8 135 14 16 5 35 -16 35 -18 0 -20 70 -2 88 9 9 -35 12 -200 12
-180 0 -214 -2 -218 -15 -4 -8 -17 -15 -30 -15 -22 0 -24 4 -24 45 l0 45 231
0 c180 0 230 3 227 13 -4 9 -61 13 -231 15 -224 2 -227 3 -227 24 0 21 0 21
203 14 112 -4 216 -4 231 0 l28 7 -7 87 c-11 133 -17 154 -45 159 -30 4 -40
17 -40 52 0 31 -9 42 -24 30 -6 -4 -30 -11 -53 -15 -35 -5 -43 -3 -43 9 0 22
-18 18 -25 -6 -4 -12 -4 -84 0 -160 l7 -139 -31 0 -31 0 0 184 c0 168 -6 216
-25 186z m-5 -155 c0 -108 -1 -115 -20 -115 -19 0 -20 7 -20 99 0 108 5 131
26 131 11 0 14 -23 14 -115z m222 -70 c9 -66 17 -126 18 -132 0 -9 -16 -13
-48 -13 l-47 0 -16 128 c-10 88 -12 129 -5 135 6 4 26 6 45 5 l35 -3 18 -120z
m-288 5 c4 -63 3 -117 -2 -126 -5 -10 -24 -19 -41 -20 l-31 -4 0 130 0 130 34
0 33 0 7 -110z m339 53 c10 -17 18 -193 9 -193 -4 0 -14 37 -21 83 -7 45 -14
90 -17 100 -5 17 20 25 29 10z m17 -413 l0 -40 -225 0 c-218 0 -225 1 -225 20
0 15 7 20 25 20 17 0 25 -6 25 -17 1 -16 2 -15 12 2 30 55 29 55 215 55 l173
0 0 -40z m-50 -185 l0 -115 -44 0 c-40 0 -48 4 -72 35 -31 41 -26 62 16 78 17
6 30 17 30 24 0 19 -18 16 -47 -7 -31 -24 -46 -25 -63 -5 -17 21 -30 19 -30
-5 0 -10 -9 -24 -20 -30 -26 -14 -25 -26 0 -33 18 -5 19 -8 9 -31 -8 -17 -20
-26 -36 -26 -23 0 -23 1 -23 115 l0 115 140 0 140 0 0 -115z m60 0 c0 -96 -3
-115 -15 -115 -12 0 -15 19 -15 115 0 96 3 115 15 115 12 0 15 -19 15 -115z
m-200 -90 l23 -25 -48 0 -48 0 23 25 c13 14 24 25 25 25 1 0 12 -11 25 -25z"/>
<path d="M4107 4933 c-21 -21 -3 -32 56 -35 l62 -3 3 -38 c4 -51 -11 -67 -64
-67 -33 0 -46 -5 -54 -19 -15 -29 -12 -104 6 -129 15 -22 17 -22 305 -22 250
0 289 2 289 15 0 13 -32 15 -227 15 -225 0 -226 0 -208 20 17 18 31 20 172 20
95 0 153 4 153 10 0 6 -58 10 -153 10 -141 0 -153 1 -165 20 -12 20 -10 20
238 20 217 0 250 2 250 15 0 9 -11 20 -25 25 -18 7 -25 17 -25 35 0 34 17 65
35 65 24 0 18 37 -7 44 -31 8 -633 8 -641 -1z m607 -57 c-8 -14 -14 -38 -12
-53 l3 -28 -229 -3 c-206 -2 -228 -1 -222 14 3 8 6 33 6 55 l0 39 235 0 235 0
-16 -24z m-512 -148 c20 -44 6 -78 -32 -78 -31 0 -40 15 -40 64 0 38 6 46 35
46 14 0 26 -11 37 -32z m57 -4 c9 -21 8 -30 -7 -49 l-18 -23 -1 31 c0 18 -4
42 -8 55 -11 32 18 20 34 -14z"/>
<path d="M3533 4889 c-80 -39 -130 -154 -104 -239 16 -53 41 -81 101 -114 45
-25 60 -28 116 -24 115 7 184 78 184 189 0 75 -31 134 -94 177 -40 27 -58 32
-105 32 -37 0 -70 -7 -98 -21z m95 -88 c3 -9 -2 -11 -18 -6 -49 15 -80 -62
-45 -112 14 -19 24 -22 83 -21 37 0 75 5 85 10 10 5 26 7 35 3 13 -5 7 -10
-23 -22 -22 -8 -46 -15 -53 -15 -9 -1 -10 -4 -2 -12 8 -8 20 -6 41 7 38 21 59
22 59 1 0 -11 -5 -14 -16 -10 -9 3 -29 -2 -45 -11 -23 -14 -33 -15 -48 -6 -11
7 -23 8 -32 2 -17 -11 -83 -12 -93 -1 -4 4 -24 7 -44 7 -32 0 -37 3 -37 24 0
13 8 29 17 34 13 9 22 4 46 -21 22 -24 39 -32 64 -32 36 0 78 23 65 36 -4 4
-13 2 -19 -4 -37 -37 -118 17 -118 80 0 54 83 114 98 69z"/>
<path d="M3490 4640 c0 -5 4 -10 9 -10 6 0 13 5 16 10 3 6 -1 10 -9 10 -9 0
-16 -4 -16 -10z"/>
<path d="M1047 4893 c-11 -11 -8 -68 5 -81 20 -20 -10 -42 -57 -42 -51 0 -57
-5 -42 -37 8 -18 8 -29 -1 -44 -16 -24 -15 -29 3 -29 12 0 15 -28 17 -167 l3
-168 230 0 230 0 3 168 c2 159 3 167 22 167 21 0 28 24 10 35 -5 3 -9 21 -7
38 l2 32 -92 3 c-65 2 -95 7 -103 17 -18 22 -4 82 20 90 11 4 20 11 20 16 0
10 -253 13 -263 2z m201 -40 c-3 -16 -15 -18 -93 -18 -78 0 -90 2 -93 18 -3
15 7 17 93 17 86 0 96 -2 93 -17z m-8 -63 c9 -18 8 -20 -15 -20 -30 0 -65 16
-65 30 0 6 16 10 35 10 24 0 37 -6 45 -20z m180 -75 l0 -25 -215 0 -215 0 0
25 0 25 215 0 215 0 0 -25z m-10 -210 l0 -155 -205 0 -205 0 0 155 0 155 205
0 205 0 0 -155z"/>
<path d="M1042 4543 l3 -98 143 -3 c117 -2 142 -5 142 -17 0 -13 -25 -15 -156
-15 -120 0 -155 -3 -152 -12 4 -10 49 -14 171 -16 l167 -2 0 42 c0 29 7 49 22
65 14 15 18 27 12 33 -7 7 -20 0 -39 -20 l-29 -30 -128 0 -128 0 0 30 0 30
124 0 c68 0 131 3 140 6 43 16 3 24 -124 24 l-140 0 0 40 c0 29 -4 40 -15 40
-13 0 -15 -15 -13 -97z"/>
<path d="M1170 4615 c0 -13 12 -15 78 -13 43 2 77 7 77 13 0 6 -34 11 -77 13
-66 2 -78 0 -78 -13z"/>
<path d="M1705 4860 c-55 -23 -104 -120 -88 -178 10 -39 23 -24 23 27 0 54 29
107 70 129 43 23 108 9 148 -31 32 -32 35 -40 35 -91 0 -41 4 -56 13 -56 21 0
18 88 -5 130 -27 51 -74 80 -130 79 -25 0 -55 -4 -66 -9z"/>
<path d="M1703 4774 c-23 -23 -25 -31 -20 -76 10 -84 49 -120 113 -104 30 8
56 61 58 119 2 78 -95 117 -151 61z m105 -10 c43 -30 13 -154 -38 -154 -25 0
-60 34 -60 58 0 9 -3 27 -6 39 -4 15 2 29 20 47 29 30 52 33 84 10z"/>
<path d="M2641 4727 c-17 -17 -13 -33 15 -66 31 -37 44 -38 71 -8 46 51 34 85
-31 85 -24 0 -49 -5 -55 -11z m89 -29 c0 -6 -7 -20 -17 -30 -15 -17 -17 -17
-35 -2 -26 24 -22 42 10 46 32 4 42 1 42 -14z"/>
<path d="M2245 4671 c-11 -5 -46 -7 -77 -4 -53 5 -59 4 -87 -25 -50 -50 -42
-118 25 -191 48 -54 99 -85 128 -77 34 8 114 83 138 129 39 77 3 162 -73 172
-18 3 -43 1 -54 -4z m-55 -36 c15 -8 30 -20 32 -26 2 -7 11 -7 30 2 22 9 31 9
43 -1 26 -21 17 -51 -29 -97 l-45 -44 -28 17 c-67 42 -83 67 -67 108 8 21 43
20 66 -1 25 -22 36 -8 13 17 -20 22 -74 27 -93 8 -36 -36 4 -119 74 -153 35
-16 36 -16 74 10 49 34 70 66 70 104 0 42 -40 69 -77 52 -23 -11 -25 -10 -13
3 18 23 72 20 98 -4 26 -25 29 -77 7 -119 -20 -39 -103 -111 -128 -111 -11 0
-46 26 -79 58 -54 54 -58 62 -58 104 0 45 14 68 50 81 24 9 29 8 60 -8z"/>
<path d="M3075 4641 c-3 -10 -14 -21 -25 -24 -17 -4 -16 -8 13 -40 l32 -34 12
22 c7 12 23 26 35 30 l23 7 -27 11 c-14 6 -29 19 -31 29 -7 24 -24 23 -32 -1z"/>
<path d="M4290 4491 c-126 -45 -202 -194 -156 -304 13 -32 82 -107 99 -107 11
0 8 89 -4 111 -8 15 -19 19 -42 17 -30 -3 -32 -1 -35 34 -7 83 42 169 121 211
32 16 59 21 112 21 97 0 137 -21 164 -85 12 -27 35 -59 52 -71 44 -33 35 -53
-23 -49 -56 3 -83 -10 -103 -49 -39 -76 5 -150 90 -150 80 0 122 65 92 142
-14 35 -14 43 -3 60 13 19 14 19 19 1 3 -10 8 -39 12 -65 5 -39 12 -50 39 -68
53 -32 55 -91 4 -124 -28 -17 -188 -31 -252 -22 -39 6 -46 11 -46 30 0 13 -9
31 -20 41 -12 11 -20 31 -20 49 0 17 -4 38 -9 46 -7 10 -4 18 10 28 13 9 19
23 18 41 -2 14 1 36 5 48 8 26 -15 78 -43 93 -37 19 -100 12 -126 -15 -71 -70
17 -182 107 -134 26 14 38 1 15 -15 -20 -15 -25 -110 -6 -122 6 -4 9 -26 7
-55 l-5 -49 36 -6 c61 -10 61 -9 61 -74 l0 -60 116 0 c88 0 115 3 112 13 -3 7
-27 13 -61 15 -53 3 -57 5 -63 30 -3 15 -8 35 -11 45 -2 9 -1 17 4 18 154 12
175 16 206 48 25 25 32 39 32 72 0 35 -6 46 -38 73 -30 25 -39 41 -47 86 -6
30 -20 74 -31 97 -61 126 -253 202 -389 154z m329 -117 c44 -50 56 -82 18 -46
-13 12 -27 19 -32 15 -4 -5 -5 -3 -2 3 4 7 0 17 -9 25 -21 17 -37 49 -25 49 5
0 28 -21 50 -46z m-337 -27 c-40 -43 -21 -99 38 -110 22 -4 21 -4 -6 -6 -35
-1 -59 20 -69 61 -5 21 -1 33 19 52 31 32 47 34 18 3z m63 -8 c-4 -5 1 -19 10
-29 37 -41 -3 -77 -50 -46 -31 20 -32 50 -3 70 26 18 52 21 43 5z m39 -15 c5
-14 4 -15 -9 -4 -17 14 -19 20 -6 20 5 0 12 -7 15 -16z m231 -99 c33 -33 32
-70 -4 -106 -36 -35 -64 -37 -96 -4 -35 34 -34 86 1 114 35 28 69 26 99 -4z
m-405 -56 c17 -31 7 -42 -18 -19 -12 12 -20 25 -17 31 10 15 24 10 35 -12z
m315 -226 c4 -16 8 -36 10 -45 2 -13 -3 -18 -20 -18 -17 0 -24 7 -29 31 -10
49 -7 59 14 59 13 0 21 -9 25 -27z"/>
<path d="M4527 4212 c-20 -22 -22 -53 -5 -70 20 -20 76 -15 88 7 14 28 13 38
-10 61 -25 25 -52 26 -73 2z m53 -28 c0 -9 -7 -14 -17 -12 -25 5 -28 28 -4 28
12 0 21 -6 21 -16z"/>
<path d="M1640 4491 c0 -18 164 -29 218 -15 53 15 14 24 -98 24 -66 0 -120 -4
-120 -9z"/>
<path d="M3957 4463 c-14 -13 -6 -50 14 -69 20 -18 21 -18 40 6 22 29 23 42 7
58 -13 13 -50 16 -61 5z m43 -21 c0 -13 -12 -22 -22 -16 -10 6 -1 24 13 24 5
0 9 -4 9 -8z"/>
<path d="M260 4435 c0 -8 9 -15 20 -15 11 0 20 7 20 15 0 8 -9 15 -20 15 -11
0 -20 -7 -20 -15z"/>
<path d="M4830 4340 c0 -67 4 -110 10 -110 6 0 10 43 10 110 0 67 -4 110 -10
110 -6 0 -10 -43 -10 -110z"/>
<path d="M1644 4426 c-3 -8 -4 -27 -2 -43 l3 -28 103 -3 c111 -3 142 6 142 41
0 41 -17 47 -132 47 -84 0 -110 -3 -114 -14z m206 -31 c0 -13 -14 -15 -87 -13
-58 2 -88 7 -91 16 -3 9 19 12 87 12 75 0 91 -3 91 -15z"/>
<path d="M2745 4347 c-8 -4 -15 -16 -15 -26 0 -18 45 -71 61 -71 11 0 49 56
49 73 0 33 -55 47 -95 24z m69 -15 c3 -5 -2 -19 -10 -31 -15 -21 -17 -21 -35
-5 -25 22 -24 32 4 37 12 2 25 5 29 6 4 0 9 -3 12 -7z"/>
<path d="M3246 4285 c-9 -24 -8 -25 15 -25 14 0 19 5 17 17 -4 23 -24 27 -32
8z"/>
<path d="M3400 4239 c0 -5 5 -7 10 -4 6 3 10 8 10 11 0 2 -4 4 -10 4 -5 0 -10
-5 -10 -11z"/>
<path d="M2022 4218 c-17 -17 -15 -57 3 -64 12 -5 15 -32 14 -154 l0 -147 -77
-7 c-88 -7 -205 -37 -264 -67 -22 -11 -44 -17 -48 -12 -39 42 -100 125 -100
136 0 20 -43 57 -68 57 -21 0 -52 -34 -52 -56 0 -21 50 -73 73 -76 14 -2 33
-22 55 -58 l33 -55 -28 -20 c-15 -11 -60 -52 -100 -92 -53 -53 -82 -93 -112
-155 -42 -84 -81 -216 -81 -272 0 -41 -7 -49 -57 -74 -57 -30 -77 -83 -71
-189 3 -46 12 -92 22 -111 22 -42 71 -72 117 -72 l37 0 7 -112 c7 -100 6 -113
-10 -125 -14 -9 -20 -34 -26 -100 -4 -49 -8 -89 -8 -90 -1 -2 -7 -3 -15 -3
-41 0 -116 -101 -116 -156 0 -28 -85 -308 -101 -334 -34 -54 -40 -83 -34 -168
4 -48 11 -102 15 -120 6 -23 4 -43 -6 -67 -40 -96 6 -272 93 -357 78 -75 124
-86 137 -32 5 19 11 24 24 19 42 -16 69 -16 85 0 23 23 22 34 -13 100 -23 44
-28 61 -20 76 13 23 20 24 58 2 33 -19 62 -12 62 16 0 11 -39 59 -90 112 -65
66 -90 99 -91 118 0 14 -4 64 -8 111 -7 80 -6 87 15 110 12 14 37 68 56 120
l33 95 6 -190 c4 -104 12 -219 19 -255 28 -146 109 -258 239 -330 95 -53 101
-60 101 -130 0 -49 4 -62 20 -72 28 -18 25 -59 -4 -87 -32 -30 -56 -81 -56
-118 l0 -29 -121 -11 c-118 -11 -154 -22 -129 -38 53 -33 1239 -32 1323 0 48
19 -1 33 -157 44 l-91 6 -5 40 c-7 45 -33 91 -61 106 -24 12 -26 74 -4 95 10
10 15 35 15 75 0 57 2 61 31 77 87 47 185 120 219 163 71 90 101 212 119 483
6 82 12 150 14 152 2 2 19 -31 37 -74 18 -42 39 -84 45 -92 7 -8 15 -27 19
-42 3 -15 17 -35 31 -44 31 -20 32 -32 3 -36 -22 -3 -23 -7 -26 -120 l-3 -117
-29 -21 c-37 -27 -38 -45 -2 -67 15 -9 29 -18 31 -20 2 -1 -22 -30 -53 -63
-57 -62 -70 -90 -64 -130 5 -38 31 -47 74 -27 44 22 55 15 26 -16 -26 -27 -29
-69 -6 -91 19 -19 17 -19 57 -2 44 18 86 63 110 116 25 55 41 254 42 500 0
163 0 166 -29 219 -15 30 -53 123 -83 205 -64 179 -90 225 -143 263 l-40 28 2
87 c1 66 -3 93 -16 113 -14 21 -15 35 -7 83 6 31 13 93 17 138 7 87 10 91 85
108 36 8 58 46 70 117 17 108 -14 219 -61 219 -10 0 -23 7 -30 15 -6 8 -21 13
-33 12 -19 -2 -23 7 -39 92 -21 115 -68 218 -132 288 l-48 53 30 37 c17 21 64
71 105 112 55 54 80 72 93 67 9 -3 27 0 40 9 34 22 32 69 -2 92 -24 15 -29 15
-53 2 -16 -9 -28 -26 -31 -45 -3 -22 -36 -64 -106 -139 l-100 -107 -67 45
c-36 25 -73 49 -82 54 -14 8 -14 14 -4 35 6 15 17 24 25 21 28 -11 67 94 45
121 -9 11 -9 25 -1 55 11 42 14 45 63 82 49 37 26 109 -36 109 -40 0 -62 -39
-47 -84 9 -29 8 -40 -9 -73 -11 -22 -27 -46 -37 -54 -19 -16 -64 -105 -64
-129 -1 -40 -14 -42 -102 -16 -47 13 -117 28 -155 31 l-71 7 -5 57 c-3 31 -6
97 -7 147 -1 76 1 92 15 98 11 4 15 16 13 38 -3 28 -7 33 -33 36 -17 2 -36 -3
-43 -10z m35 -34 c-9 -9 -28 6 -21 18 4 6 10 6 17 -1 6 -6 8 -13 4 -17z m513
-64 c0 -21 -15 -27 -25 -10 -7 12 2 30 16 30 5 0 9 -9 9 -20z m-59 -167 c-12
-20 -14 -14 -5 12 4 9 9 14 11 11 3 -2 0 -13 -6 -23z m-1011 -38 c15 -19 6
-47 -14 -39 -17 6 -29 32 -20 45 8 13 20 11 34 -6z m1007 -6 c12 -12 8 -34 -9
-56 -7 -9 -14 -9 -28 -1 -15 9 -16 16 -8 40 10 29 26 36 45 17z m393 -7 c0 -4
-5 -13 -12 -20 -18 -18 -28 -15 -28 8 0 13 7 20 20 20 11 0 20 -4 20 -8z
m-1313 -94 c41 -59 46 -68 35 -68 -5 0 -26 25 -46 55 -42 64 -34 75 11 13z
m849 -15 c-13 -24 -15 -25 -16 -7 0 11 5 25 12 32 19 19 21 6 4 -25z m-362 0
c3 -4 28 -8 53 -10 103 -6 240 -61 330 -132 43 -35 123 -135 123 -155 0 -4
-25 14 -55 39 -114 93 -207 125 -376 132 -204 9 -362 -34 -501 -137 -120 -88
-188 -199 -217 -348 -11 -62 -19 -81 -29 -77 -7 3 -30 5 -49 5 l-36 0 7 76 c8
90 44 209 85 279 93 160 302 294 506 324 77 11 150 13 159 4z m210 -163 c144
-36 266 -122 313 -219 22 -44 22 -44 32 -19 5 14 15 45 21 69 11 41 13 43 27
24 45 -60 75 -155 87 -267 4 -37 2 -58 -4 -58 -6 0 -40 31 -76 70 -46 49 -86
80 -132 102 -58 29 -74 32 -151 32 -100 0 -170 -26 -238 -88 -22 -20 -44 -36
-47 -36 -4 0 -22 11 -40 25 -110 84 -250 104 -358 51 -65 -33 -124 -90 -165
-161 -26 -44 -34 -50 -66 -53 l-37 -3 0 44 c0 52 33 167 63 217 127 217 486
343 771 270z m220 -330 c113 -43 196 -152 196 -258 0 -80 -18 -128 -69 -185
-59 -65 -126 -97 -207 -97 -97 0 -149 23 -223 99 l-64 66 -16 -25 c-45 -69
-81 -106 -131 -134 -49 -28 -64 -31 -135 -31 -59 0 -89 5 -115 19 -68 36 -109
77 -139 138 -73 145 -19 303 130 378 119 61 275 14 349 -105 12 -19 27 -35 33
-35 7 0 23 20 36 46 65 121 218 175 355 124z m432 -225 c9 -49 1 -172 -13
-186 -8 -8 -10 20 -10 105 2 116 10 147 23 81z m-92 3 c9 -36 7 -116 -3 -98
-14 24 -24 120 -13 120 5 0 12 -10 16 -22z m-1564 -27 c5 -11 10 -37 9 -58
l-1 -38 -9 38 c-5 21 -14 47 -19 58 -7 12 -7 19 -1 19 6 0 15 -9 21 -19z m120
-52 c0 -52 -3 -70 -12 -67 -8 3 -14 29 -16 71 -2 55 0 67 13 67 12 0 15 -14
15 -71z m-67 -38 c4 -54 4 -113 1 -130 -12 -59 -24 -42 -24 32 0 41 -3 102 -6
136 -6 50 -4 61 8 61 12 0 16 -21 21 -99z m185 65 c4 -33 -10 -46 -50 -46 -26
0 -28 3 -28 41 l0 40 38 -3 c33 -3 37 -6 40 -32z m-261 -97 c4 -66 1 -88 -10
-104 -14 -18 -16 -13 -15 65 1 47 -2 101 -6 120 -8 33 -7 34 9 19 12 -12 18
-39 22 -100z m-57 -4 c0 -59 -14 -90 -23 -53 -9 31 -9 113 0 121 12 13 23 -18
23 -68z m320 20 c0 -11 -11 -15 -40 -15 -38 0 -49 8 -33 23 3 4 21 7 40 7 23
0 33 -5 33 -15z m1249 -186 c-11 -176 -18 -210 -49 -239 -16 -15 -63 -41 -104
-58 l-76 -32 -242 6 c-161 5 -295 3 -396 -5 l-153 -13 -47 31 c-48 31 -106 57
-154 72 -47 13 -31 1 37 -30 36 -17 86 -47 111 -67 l45 -37 102 4 c162 6 599
4 630 -4 15 -4 27 -11 27 -15 0 -4 -177 -7 -393 -7 l-392 0 -70 36 c-38 20
-104 47 -145 60 -115 35 -110 25 -117 242 -6 184 -6 187 14 187 26 0 33 -17
34 -83 3 -104 17 -116 18 -14 l1 97 39 0 c36 0 42 -4 71 -49 90 -141 243 -204
397 -162 45 12 158 83 172 109 8 14 15 11 50 -21 64 -58 116 -80 201 -85 92
-5 162 18 244 82 64 49 84 73 117 136 l23 45 6 -40 c3 -22 3 -88 -1 -146z
m-1317 -318 c47 -16 127 -48 177 -70 l91 -41 403 0 402 0 70 41 c130 76 130
76 18 -20 -39 -33 -79 -73 -88 -88 l-16 -28 -403 1 -404 0 -53 35 c-29 19
-108 63 -174 100 -70 38 -121 72 -123 82 -5 22 0 22 100 -12z m158 -184 c25
-17 46 -31 48 -33 2 -1 -2 -29 -8 -62 -10 -48 -9 -94 3 -234 23 -252 30 -410
18 -440 -7 -18 -20 -28 -41 -33 -17 -4 -34 -4 -37 -1 -4 3 -8 53 -11 111 -4
94 -3 108 15 128 10 12 25 31 33 42 13 17 11 17 -14 -3 -16 -12 -30 -21 -31
-20 -2 2 -8 89 -14 193 -7 105 -17 208 -22 230 -14 51 -86 122 -162 160 -56
27 -57 28 -57 71 l0 44 118 -62 c64 -34 137 -75 162 -91z m1170 104 c0 -31 -5
-42 -27 -57 -16 -10 -53 -42 -84 -71 l-57 -54 -37 25 -38 26 39 36 c40 37 182
134 196 134 4 0 8 -17 8 -39z m-1462 -137 c5 -53 -62 -114 -109 -99 -26 9 -24
45 6 85 32 43 44 51 75 48 20 -2 26 -9 28 -34z m58 -9 c26 -63 19 -121 -25
-194 -21 -37 -47 -90 -56 -119 -20 -59 -28 -62 -94 -32 -54 25 -54 25 -69 -7
-10 -24 -10 -29 5 -38 30 -17 77 -33 101 -34 27 -1 27 -9 3 -40 -16 -21 -23
-23 -56 -17 -48 9 -97 58 -89 90 3 11 24 75 47 141 42 117 44 119 75 121 70 4
149 82 138 137 -8 37 2 34 20 -8z m1364 11 c0 -1 -4 -16 -10 -32 -5 -16 -21
-135 -35 -264 -25 -227 -46 -355 -65 -406 -10 -25 -58 -51 -70 -37 -4 4 -4 44
1 88 5 44 15 157 24 250 8 94 20 204 26 245 11 74 12 76 63 117 45 38 66 50
66 39z m100 -26 c0 -63 60 -150 94 -137 12 5 16 0 16 -20 0 -31 -26 -63 -51
-63 -45 0 -118 99 -119 160 0 28 34 90 50 90 5 0 10 -14 10 -30z m-1365 -12
c44 -35 55 -77 70 -277 8 -102 15 -193 15 -203 0 -15 -90 -88 -110 -88 -6 0
-10 113 -12 295 -2 162 0 295 3 295 4 0 19 -10 34 -22z m1018 16 c13 -5 13 -8
-4 -25 -27 -27 -35 -68 -18 -98 12 -22 22 -26 57 -26 31 0 42 -4 42 -15 0 -61
-44 -495 -56 -552 -7 -33 -24 -36 -48 -9 -17 18 -18 44 -15 300 4 269 3 280
-17 308 -42 58 -71 64 -267 57 -98 -4 -177 -10 -177 -13 0 -3 78 -5 173 -3
289 6 283 14 274 -355 -5 -163 -3 -271 3 -287 5 -15 21 -31 35 -38 14 -6 25
-15 25 -20 0 -4 -31 -39 -68 -78 -45 -45 -58 -63 -39 -52 16 9 52 42 78 72 48
53 51 55 94 52 49 -4 54 -14 28 -52 -35 -54 -66 -80 -87 -74 -12 3 -69 -7
-128 -21 -93 -21 -131 -25 -270 -25 -179 0 -222 8 -269 48 -40 33 -90 102 -83
113 11 18 41 8 69 -21 16 -17 45 -35 64 -40 20 -5 130 -10 244 -10 165 0 215
3 245 15 40 17 82 52 82 68 0 6 -10 1 -22 -10 -58 -53 -78 -56 -314 -56 -233
1 -255 5 -297 50 -16 19 -16 21 4 39 49 44 51 57 49 368 -1 160 -1 302 0 316
4 54 -92 84 -124 38 -23 -33 -20 -71 9 -98 19 -18 31 -22 60 -17 l35 6 0 -274
0 -274 -31 -36 c-18 -20 -40 -35 -53 -35 -20 0 -24 8 -34 63 -33 176 -73 493
-74 581 -1 86 1 100 17 112 15 11 94 14 406 14 213 0 394 -3 402 -6z m82 -48
c14 -20 14 -29 4 -48 -16 -31 -30 -39 -54 -31 -39 12 -47 51 -15 83 27 27 46
25 65 -4z m355 -23 c0 -7 -4 -13 -9 -13 -10 0 -21 25 -21 48 1 15 3 14 15 -2
8 -11 15 -26 15 -33z m-1092 25 c18 -18 15 -66 -5 -76 -22 -13 -60 4 -66 29
-11 40 42 76 71 47z m1168 -262 c31 -85 31 -104 -2 -116 -37 -15 -44 -13 -44
13 0 12 -8 52 -18 88 -18 64 -18 65 2 81 27 21 32 15 62 -66z m-1826 -47 c0
-5 3 -8 8 -5 4 2 23 -3 42 -11 50 -22 18 -29 -36 -8 -43 16 -59 35 -29 35 8 0
15 -5 15 -11z m-84 -100 c19 -22 19 -23 -29 -50 -26 -15 -31 -6 -17 35 13 42
20 44 46 15z m1984 -25 c0 -30 -21 -39 -62 -28 -45 13 -44 27 4 45 51 18 58
16 58 -17z m-1870 -94 l0 -50 -80 0 -80 0 0 34 c0 48 28 66 102 66 l58 0 0
-50z m353 -77 c6 -111 5 -115 -63 -111 l-45 3 -9 54 -9 55 54 48 c30 26 57 48
60 48 3 0 9 -44 12 -97z m1532 37 c0 -23 -4 -25 -52 -28 -51 -3 -53 -2 -53 22
0 27 16 35 70 33 30 -2 35 -5 35 -27z m-1930 -50 c47 -7 45 -7 -33 -9 -53 -1
-81 3 -77 9 7 11 39 12 110 0z m1929 -87 c-4 -38 -7 -68 -8 -69 0 -1 -23 2
-51 5 l-50 6 -3 54 c-4 64 3 71 71 71 l48 0 -7 -67z m-1835 -7 l22 -23 -33
-34 c-18 -19 -37 -42 -43 -52 -11 -19 -141 -60 -158 -50 -6 3 -7 34 -4 77 8
93 22 106 121 106 63 0 75 -3 95 -24z m471 -46 c0 -5 27 -38 60 -73 33 -36 60
-71 60 -79 0 -8 6 -23 14 -33 11 -15 33 -20 127 -26 161 -11 327 3 424 36 69
23 80 24 93 11 13 -12 9 -17 -27 -40 -104 -66 -274 -101 -461 -94 -139 6 -215
27 -340 96 -61 33 -190 149 -190 170 0 10 143 39 203 41 20 1 37 -3 37 -9z
m-411 -54 c21 -23 21 -24 4 -54 -10 -18 -21 -32 -25 -32 -4 0 -16 14 -28 30
-43 60 0 108 49 56z m1749 -14 c3 -21 0 -23 -35 -20 -31 2 -39 7 -41 26 -3 21
0 23 35 20 31 -2 39 -7 41 -26z m-1842 -77 c16 -24 16 -27 -2 -40 -23 -16 -44
-3 -44 30 0 42 22 47 46 10z m1842 -35 c-2 -33 -6 -61 -9 -63 -2 -2 -21 -2
-41 1 -37 4 -38 5 -38 47 0 66 7 75 52 75 l40 0 -4 -60z m-1941 -24 c-2 -6
-11 -12 -20 -14 -18 -4 -34 39 -21 59 9 15 47 -27 41 -45z m1811 -23 c2 -13
-5 -27 -20 -37 -46 -32 -64 -10 -32 40 20 29 48 28 52 -3z m-1654 -17 c9 -15
12 -27 6 -31 -12 -8 -52 33 -45 45 10 16 22 12 39 -14z m-106 -18 c7 -7 12
-21 12 -32 0 -18 -1 -19 -20 -1 -20 18 -27 45 -12 45 4 0 13 -5 20 -12z m1862
-36 c0 -10 -14 -33 -31 -52 l-30 -35 6 44 c7 54 11 61 36 61 12 0 19 -7 19
-18z m-919 -122 c3 -30 4 -99 1 -152 -4 -87 -7 -98 -23 -98 -15 0 -19 8 -19
35 0 19 -9 57 -20 84 -17 44 -18 58 -9 108 15 83 16 85 41 81 20 -3 24 -11 29
-58z m-246 34 c94 -8 108 -24 22 -24 -85 0 -127 9 -127 27 0 9 6 13 15 10 8
-4 48 -9 90 -13z m535 2 c0 -18 -77 -29 -165 -24 l-60 3 105 16 c58 9 108 17
113 18 4 0 7 -5 7 -13z m-465 -76 c21 -5 4 -8 -58 -9 -57 -1 -86 3 -82 9 7 11
95 11 140 0z m420 0 c4 -6 -29 -9 -92 -8 -86 1 -91 2 -43 8 88 11 128 11 135
0z m-415 -65 c5 -3 10 -37 10 -74 l0 -68 -37 -7 c-21 -3 -73 -6 -115 -6 l-78
0 0 44 c0 81 64 130 157 122 29 -2 57 -7 63 -11z m464 -20 c11 -8 15 -15 8
-15 -6 0 -12 -22 -14 -52 l-3 -53 -117 -3 c-114 -3 -118 -2 -118 18 0 50 35
86 110 113 31 11 115 6 134 -8z"/>
<path d="M2321 3269 c-32 -13 -81 -48 -81 -59 0 -5 24 3 53 17 101 51 217 29
286 -54 114 -138 22 -337 -155 -335 -28 0 -65 7 -80 15 -63 33 -114 111 -114
174 0 23 35 103 45 103 3 0 2 -27 -1 -59 -9 -83 19 -141 82 -172 146 -70 283
93 199 237 -28 48 -91 84 -146 84 -83 0 -188 -82 -210 -162 -20 -77 28 -178
108 -225 40 -24 59 -28 119 -28 61 0 77 4 119 30 74 46 108 101 113 181 7 110
-46 201 -142 245 -45 20 -153 25 -195 8z m57 -101 c9 -9 15 -9 24 0 20 20 58
14 67 -10 17 -47 -9 -71 -89 -84 -26 -4 -45 -2 -55 6 -23 19 -19 66 7 84 27
19 31 19 46 4z m62 -113 c0 -8 -4 -15 -10 -15 -5 0 -10 7 -10 15 0 8 5 15 10
15 6 0 10 -7 10 -15z"/>
<path d="M1795 3250 c-4 -6 14 -10 47 -10 67 0 124 -26 167 -75 65 -74 79
-158 40 -240 -37 -79 -110 -125 -199 -125 -60 0 -92 15 -139 63 -73 77 -72
196 3 266 32 30 32 28 1 -33 -42 -83 -29 -154 38 -213 49 -43 97 -51 155 -27
68 28 106 87 107 163 0 50 -5 66 -30 103 -76 108 -199 116 -298 20 -45 -43
-70 -116 -61 -174 10 -62 62 -138 118 -173 115 -70 268 -17 338 119 77 146
-55 346 -228 346 -29 0 -56 -4 -59 -10z m94 -112 c19 -33 9 -54 -32 -74 -30
-14 -38 -15 -63 -3 -24 12 -29 21 -29 49 0 30 5 38 34 52 40 20 70 12 90 -24z
m-1 -111 c2 -10 -3 -17 -12 -17 -10 0 -16 9 -16 21 0 24 23 21 28 -4z m-120
-19 c-6 -18 -28 -21 -28 -4 0 9 7 16 16 16 9 0 14 -5 12 -12z"/>
<path d="M2142 2621 c-93 -5 -125 -10 -132 -21 -5 -8 -8 -15 -7 -16 6 -4 329
15 346 21 12 3 21 11 21 16 0 9 -17 9 -228 0z"/>
<path d="M2000 2112 c-24 -5 -41 -17 -57 -41 -21 -32 -23 -44 -22 -175 1 -240
10 -249 249 -244 158 4 191 11 205 45 11 26 19 234 10 288 -4 31 -16 57 -35
77 -16 16 -30 33 -32 38 -4 10 -273 20 -318 12z m268 -29 c50 -5 51 -7 31 -21
-15 -11 -18 -17 -9 -26 8 -8 13 -7 20 3 14 23 36 -3 44 -51 4 -24 4 -96 0
-160 -6 -107 -8 -117 -23 -105 -21 18 -48 11 -54 -14 -5 -18 -15 -19 -139 -19
-183 0 -177 -6 -180 199 l-3 153 28 24 c26 22 37 24 130 24 56 0 126 -3 155
-7z m46 -364 c-3 -6 0 -15 7 -20 10 -6 8 -9 -9 -9 -20 0 -21 3 -12 20 6 11 13
20 16 20 3 0 2 -5 -2 -11z"/>
<path d="M2007 2053 c-16 -15 -6 -43 14 -43 15 0 19 5 15 15 -4 12 5 15 54 15
33 0 60 4 60 10 0 11 -133 14 -143 3z"/>
<path d="M2225 2002 c-11 -2 -25 -8 -32 -14 -8 -6 -19 -6 -32 1 -63 34 -119
-6 -106 -75 7 -42 97 -144 125 -144 35 0 130 123 130 167 0 43 -41 74 -85 65z
m-73 -72 c25 -19 25 -19 44 1 21 23 57 22 62 -3 4 -20 -76 -110 -90 -102 -5 3
-23 24 -39 46 -47 66 -33 103 23 58z"/>
<path d="M2017 1724 c-8 -8 1 -24 14 -24 5 0 9 7 9 15 0 15 -12 20 -23 9z"/>
<path d="M3440 4210 c0 -5 5 -10 10 -10 6 0 10 5 10 10 0 6 -4 10 -10 10 -5 0
-10 -4 -10 -10z"/>
<path d="M3060 4200 c0 -5 5 -10 11 -10 5 0 7 5 4 10 -3 6 -8 10 -11 10 -2 0
-4 -4 -4 -10z"/>
<path d="M1560 4170 c-14 -26 -5 -40 26 -40 29 0 42 24 24 45 -17 21 -37 19
-50 -5z m35 -10 c3 -5 -1 -10 -9 -10 -9 0 -16 5 -16 10 0 6 4 10 9 10 6 0 13
-4 16 -10z"/>
<path d="M3115 4157 c-32 -32 -35 -40 -35 -93 0 -43 6 -68 26 -101 29 -50 116
-123 146 -123 11 0 49 29 87 68 57 56 70 75 81 120 15 63 4 99 -43 138 -26 22
-37 25 -71 20 -49 -7 -49 -7 -108 0 -45 6 -50 4 -83 -29z m125 -9 c15 -10 22
-10 32 0 23 23 74 14 102 -19 31 -37 33 -69 6 -125 -23 -47 -111 -134 -135
-134 -29 0 -122 103 -135 149 -26 97 54 176 130 129z"/>
<path d="M3175 4090 c-13 -14 -16 -28 -11 -52 6 -35 79 -128 91 -116 4 4 -9
26 -28 48 -43 51 -54 87 -32 109 12 12 19 13 33 5 12 -8 22 -8 34 -1 25 16 49
-8 42 -42 -5 -25 -5 -25 10 -7 34 42 10 67 -68 72 -43 3 -56 0 -71 -16z"/>
<path d="M3684 4106 c-15 -40 21 -80 54 -60 37 24 21 74 -25 74 -13 0 -26 -6
-29 -14z m46 -20 c0 -8 -5 -18 -12 -22 -7 -5 -8 -3 -3 6 4 7 2 16 -6 21 -11 7
-10 9 4 9 9 0 17 -6 17 -14z"/>
<path d="M3030 4100 c0 -5 5 -10 11 -10 5 0 7 5 4 10 -3 6 -8 10 -11 10 -2 0
-4 -4 -4 -10z"/>
<path d="M1030 4018 c0 -10 -10 -13 -35 -10 -50 6 -98 -15 -91 -41 2 -10 2
-16 -1 -13 -3 3 -18 -10 -33 -29 -20 -25 -30 -31 -38 -23 -7 7 -15 8 -19 3 -5
-4 -2 -10 5 -12 17 -6 15 -23 -3 -23 -26 0 -37 -37 -24 -78 26 -81 45 -122 55
-122 5 0 20 -13 32 -30 22 -30 57 -40 64 -19 6 17 38 -2 38 -22 0 -22 15 -25
23 -5 3 8 21 16 39 18 26 2 33 7 31 23 -3 28 87 71 117 55 13 -7 20 -7 20 -1
0 6 -8 15 -19 20 -18 10 -18 12 -1 48 17 36 35 158 20 133 -5 -8 -15 1 -30 25
-12 20 -32 41 -44 46 -47 22 -71 39 -71 51 0 7 -8 14 -17 16 -10 2 -18 -3 -18
-10z m-36 -37 c6 -9 -54 -24 -63 -16 -7 8 20 25 41 25 9 0 19 -4 22 -9z m59
-5 c48 -19 65 -41 82 -100 17 -59 12 -86 -15 -86 -17 0 -17 3 -5 26 9 18 10
35 4 57 -5 18 -9 33 -9 35 0 8 -69 42 -87 42 -16 0 -20 5 -16 20 6 24 5 24 46
6z m-83 -38 c-14 -6 -28 -11 -31 -10 -3 0 -18 -18 -33 -41 -22 -34 -27 -50
-23 -85 3 -24 13 -52 23 -63 16 -17 16 -22 4 -29 -19 -12 -33 -13 -26 -1 3 5
-1 25 -9 45 -17 39 -20 96 -6 96 5 0 7 8 5 18 -2 9 -1 22 3 28 13 19 77 54 98
53 17 0 17 -2 -5 -11z m198 -26 c2 -7 -3 -12 -12 -12 -9 0 -16 7 -16 16 0 17
22 14 28 -4z m-93 -17 c34 -33 32 -68 -6 -103 -18 -16 -29 -35 -25 -41 10 -16
26 -14 26 4 0 9 10 15 26 15 39 0 27 -31 -19 -49 -44 -16 -96 -5 -141 30 -45
35 -30 124 25 155 39 22 87 17 114 -11z m115 -51 c0 -23 -18 -24 -24 -1 -11
41 -7 54 9 33 8 -11 15 -25 15 -32z m-342 4 c-3 -7 -13 -15 -24 -17 -16 -3
-17 -1 -5 13 16 19 34 21 29 4z m1 -79 c7 -23 15 -47 18 -55 10 -27 -17 -14
-32 16 -16 31 -20 80 -7 80 5 0 14 -18 21 -41z m331 17 c0 -8 -7 -21 -15 -30
-9 -8 -15 -18 -15 -21 3 -13 -8 -29 -15 -22 -8 6 7 45 28 75 12 16 17 15 17
-2z m-157 -94 c32 -3 44 -8 35 -13 -24 -16 -75 -9 -99 12 -21 18 -21 20 -4 14
11 -4 42 -10 68 -13z m87 -2 c-8 -5 -17 -7 -19 -4 -3 3 1 9 9 14 8 5 17 7 19
4 3 -3 -1 -9 -9 -14z m-162 -19 c31 -26 28 -34 -10 -26 -39 8 -53 19 -44 34
10 16 28 13 54 -8z m102 -31 c0 -14 -50 -17 -61 -4 -9 11 -4 13 25 12 20 -1
36 -4 36 -8z"/>
<path d="M961 3836 c-24 -29 14 -65 50 -46 22 12 23 15 9 41 -12 22 -43 25
-59 5z m39 -16 c0 -5 -4 -10 -10 -10 -5 0 -10 5 -10 10 0 6 5 10 10 10 6 0 10
-4 10 -10z"/>
<path d="M3020 3980 c0 -5 5 -10 10 -10 6 0 10 5 10 10 0 6 -4 10 -10 10 -5 0
-10 -4 -10 -10z"/>
<path d="M316 3912 c-4 -12 -19 -28 -33 -35 l-25 -14 27 -17 c14 -9 30 -27 35
-39 7 -18 9 -19 9 -4 1 10 12 29 27 42 24 22 24 24 5 30 -11 3 -24 18 -29 33
-9 27 -9 27 -16 4z"/>
<path d="M3370 3890 c0 -5 5 -10 11 -10 5 0 7 5 4 10 -3 6 -8 10 -11 10 -2 0
-4 -4 -4 -10z"/>
<path d="M4122 3878 c-17 -17 -15 -42 6 -61 25 -22 45 -21 67 3 15 17 16 24 7
45 -13 27 -58 35 -80 13z m54 -19 c3 -6 -1 -18 -10 -27 -16 -16 -17 -16 -10 2
5 13 4 17 -4 12 -7 -4 -12 -1 -12 8 0 18 25 22 36 5z"/>
<path d="M4855 3811 c-8 -15 3 -31 21 -31 9 0 14 7 12 17 -4 20 -24 28 -33 14z"/>
<path d="M3594 3799 c-3 -6 -2 -15 4 -21 13 -13 32 -2 32 18 0 16 -26 19 -36
3z"/>
<path d="M1275 3761 c-9 -16 3 -31 26 -31 14 0 19 6 17 17 -4 20 -33 29 -43
14z"/>
<path d="M4726 3732 c-4 -11 -16 -24 -27 -27 l-21 -7 21 -15 c14 -10 21 -25
21 -49 0 -19 5 -34 10 -34 6 0 10 11 10 25 0 14 10 35 22 47 18 18 19 23 6 32
-8 6 -19 20 -25 30 -10 19 -11 19 -17 -2z"/>
<path d="M467 3716 c-46 -17 -64 -32 -83 -68 -8 -15 -20 -28 -28 -28 -17 0
-46 -33 -46 -53 0 -9 11 -24 25 -34 14 -10 46 -37 71 -60 24 -24 56 -46 69
-49 25 -6 25 -7 25 -126 0 -103 -3 -123 -17 -134 -41 -31 -45 -20 -42 99 l4
112 -55 7 c-30 4 -89 5 -130 2 -60 -5 -78 -10 -92 -28 -17 -20 -18 -18 -18 72
0 91 -12 121 -24 61 -3 -17 -6 -110 -6 -205 l0 -174 -25 0 c-16 0 -25 -6 -25
-15 0 -13 37 -15 292 -13 191 2 293 7 295 13 6 20 -37 55 -67 55 -17 0 -39 9
-50 20 -18 18 -20 33 -20 134 l0 114 30 6 c17 3 50 25 74 48 24 24 58 54 76
67 42 32 37 60 -15 85 -22 11 -51 33 -64 49 -24 29 -77 57 -103 57 -7 -1 -30
-7 -51 -14z m13 -26 c-8 -5 -19 -10 -25 -10 -5 0 -3 5 5 10 8 5 20 10 25 10 6
0 3 -5 -5 -10z m92 -11 c16 -12 27 -24 24 -27 -4 -3 -16 4 -29 15 -12 12 -31
23 -42 26 -18 4 -18 5 -2 6 11 0 32 -8 49 -20z m-18 -52 c-19 -11 -19 -10 -28
28 l-8 30 26 -24 c23 -22 24 -26 10 -34z m-133 9 c-9 -18 -18 -29 -19 -24 -4
8 24 58 32 58 2 0 -4 -15 -13 -34z m89 -13 c0 -7 -9 -13 -20 -13 -21 0 -25 15
-13 46 6 16 7 16 20 -2 7 -10 13 -24 13 -31z m-59 10 c-8 -15 -10 -15 -11 -2
0 17 10 32 18 25 2 -3 -1 -13 -7 -23z m161 -25 c-9 -9 -12 -7 -12 12 0 19 3
21 12 12 9 -9 9 -15 0 -24z m-35 -14 c-3 -4 -14 -3 -24 0 -15 6 -15 8 -3 16
16 10 39 -4 27 -16z m-122 6 c3 -5 2 -10 -4 -10 -5 0 -13 5 -16 10 -3 6 -2 10
4 10 5 0 13 -4 16 -10z m245 -9 c7 -15 7 -22 -2 -27 -7 -4 -10 -3 -5 1 4 5 0
17 -10 27 -9 10 -11 18 -5 18 6 0 16 -9 22 -19z m-180 -1 c0 -5 -6 -10 -14
-10 -8 0 -18 5 -21 10 -3 6 3 10 14 10 12 0 21 -4 21 -10z m-160 -27 c0 -22
-2 -25 -10 -13 -13 20 -13 40 0 40 6 0 10 -12 10 -27z m43 14 c3 -8 1 -20 -4
-28 -6 -10 -9 -7 -9 14 0 29 5 35 13 14z m228 0 c-1 -4 -1 -14 -1 -22 0 -8 -7
-15 -15 -15 -15 0 -21 31 -8 44 8 8 25 3 24 -7z m-167 -23 c3 -9 -1 -14 -14
-14 -13 0 -20 7 -20 20 0 22 25 18 34 -6z m208 -6 c-9 -9 -12 -7 -12 12 0 19
3 21 12 12 9 -9 9 -15 0 -24z m-152 -5 c0 -20 -34 -12 -38 9 -2 12 2 15 17 11
12 -3 21 -12 21 -20z m60 7 c0 -11 -7 -20 -15 -20 -8 0 -15 9 -15 20 0 11 7
20 15 20 8 0 15 -9 15 -20z m-160 -40 c0 -5 -2 -10 -4 -10 -3 0 -8 5 -11 10
-3 6 -1 10 4 10 6 0 11 -4 11 -10z m55 0 c8 -13 -15 -13 -35 0 -12 8 -11 10 7
10 12 0 25 -4 28 -10z m45 -15 c0 -8 -6 -15 -13 -15 -8 0 -14 7 -14 15 0 8 6
15 14 15 7 0 13 -7 13 -15z m55 5 c-3 -5 -10 -10 -16 -10 -5 0 -9 5 -9 10 0 6
7 10 16 10 8 0 12 -4 9 -10z m7 -31 c-19 -17 -37 -27 -40 -23 -4 4 -1 9 5 11
7 3 23 13 35 23 37 31 36 22 0 -11z m-92 -9 l35 -20 -30 6 c-16 4 -37 13 -45
20 -20 20 -1 17 40 -6z m-65 -110 c-3 -6 -50 -10 -105 -10 -95 0 -99 -1 -120
-27 -18 -23 -20 -35 -14 -80 4 -36 3 -53 -5 -53 -6 0 -11 -7 -11 -15 0 -8 -4
-15 -10 -15 -6 0 -10 31 -10 74 0 66 3 77 28 104 l27 31 113 1 c73 0 111 -4
107 -10z m-17 -42 c7 -7 12 -42 12 -85 l0 -73 -115 0 c-111 0 -115 1 -105 19
5 11 7 39 4 64 -5 37 -3 48 15 66 18 18 33 21 99 21 47 0 83 -5 90 -12z m204
-193 c-1 -6 -57 -10 -145 -9 -272 1 -327 4 -327 14 0 7 81 9 238 8 152 -2 236
-7 234 -13z"/>
<path d="M277 3283 c-4 -3 -7 -12 -7 -19 0 -16 52 -3 58 14 4 13 -39 17 -51 5z"/>
<path d="M350 3235 c-8 -9 -30 -15 -57 -15 -58 0 -54 -24 5 -28 31 -2 46 2 61
17 22 22 27 41 12 41 -5 0 -14 -7 -21 -15z"/>
<path d="M3723 3705 c-17 -12 -23 -26 -23 -53 0 -30 8 -44 55 -89 62 -60 65
-60 128 4 49 51 59 101 27 133 -18 18 -29 21 -58 16 -55 -9 -55 -9 -82 -2 -16
4 -33 1 -47 -9z m65 -35 l19 -20 18 20 c30 33 75 20 75 -22 0 -20 -66 -98 -83
-98 -23 0 -87 74 -87 100 0 45 26 54 58 20z"/>
<path d="M3016 3655 c-19 -20 -20 -26 -3 -49 26 -36 84 4 61 42 -15 23 -38 26
-58 7z m40 -16 c10 -17 -13 -36 -27 -22 -12 12 -4 33 11 33 5 0 12 -5 16 -11z"/>
<path d="M4364 3613 c-126 -3 -175 -7 -183 -17 -7 -8 -12 -92 -13 -227 l-3
-214 -32 -3 c-21 -2 -33 -9 -33 -18 0 -12 58 -14 390 -14 l389 0 37 32 c33 29
36 35 31 75 -3 29 0 46 9 54 9 7 14 31 14 61 0 43 -4 54 -34 84 -26 26 -42 34
-71 34 -31 0 -35 3 -30 19 8 25 -3 48 -26 54 -13 4 -17 10 -12 22 3 10 2 16
-3 13 -5 -2 -24 -11 -41 -18 -18 -8 -33 -17 -33 -21 0 -3 19 -10 43 -15 39 -9
42 -12 40 -41 -3 -29 -1 -31 44 -36 53 -6 96 -44 91 -81 -3 -19 -10 -21 -75
-24 -84 -3 -100 -22 -19 -22 58 0 76 -11 56 -35 -9 -10 -33 -15 -76 -15 -49 0
-64 -3 -64 -15 0 -11 18 -15 82 -17 92 -3 104 -13 64 -53 -24 -24 -31 -26
-113 -23 l-88 3 -2 218 c-1 120 -4 225 -7 232 -4 12 -23 14 -83 13 -43 -1
-155 -4 -249 -5z m266 -239 l0 -215 -37 3 -38 3 -3 213 -2 212 40 0 40 0 0
-216z m40 0 c0 -141 -3 -213 -10 -209 -6 4 -10 87 -10 216 0 133 4 209 10 209
6 0 10 -79 10 -216z m-152 29 l2 -173 -144 0 c-86 0 -147 -4 -151 -10 -4 -6
47 -10 144 -10 114 0 151 -3 151 -12 0 -10 -39 -13 -160 -14 l-160 0 0 191 c0
106 3 195 7 199 4 3 75 5 157 4 l151 -3 3 -172z"/>
<path d="M4240 3500 c0 -6 47 -10 120 -10 73 0 120 4 120 10 0 6 -47 10 -120
10 -73 0 -120 -4 -120 -10z"/>
<path d="M4240 3445 c0 -12 15 -15 74 -15 40 0 94 3 120 6 85 12 47 24 -74 24
-100 0 -120 -2 -120 -15z"/>
<path d="M4240 3390 c0 -6 45 -10 115 -10 70 0 115 4 115 10 0 6 -45 10 -115
10 -70 0 -115 -4 -115 -10z"/>
<path d="M4247 3344 c-19 -19 1 -24 89 -24 72 0 95 3 92 13 -5 13 -168 23
-181 11z"/>
<path d="M4240 3280 c0 -16 39 -21 129 -18 56 2 86 7 89 16 3 9 -23 12 -107
12 -66 0 -111 -4 -111 -10z"/>
<path d="M1016 3503 c-11 -11 -6 -23 9 -23 8 0 15 4 15 9 0 13 -16 22 -24 14z"/>
<path d="M3266 3380 c-91 -28 -124 -145 -71 -258 27 -57 103 -144 166 -187 50
-35 62 -30 160 62 138 130 157 258 49 331 -39 26 -89 25 -120 -3 -15 -14 -19
-13 -41 11 -24 27 -78 55 -101 53 -7 0 -26 -5 -42 -9z m124 -71 l37 -41 38 26
c21 14 43 26 49 26 24 0 76 -41 82 -65 12 -49 -2 -123 -31 -166 -28 -40 -29
-40 -44 -20 -9 11 -40 26 -70 34 -32 8 -60 23 -70 36 -17 22 -18 23 -57 5 -28
-12 -34 -18 -21 -21 9 -3 17 -10 17 -18 0 -7 7 -18 15 -25 13 -10 19 -10 33 3
14 13 21 14 30 5 18 -18 15 -28 -13 -50 -14 -11 -25 -26 -25 -34 0 -38 -58 11
-113 97 l-17 26 57 27 c32 15 66 32 75 37 10 5 19 5 23 -1 3 -6 17 -10 29 -10
13 0 29 -7 36 -15 9 -10 17 -12 23 -6 6 6 19 6 33 0 33 -12 68 21 58 54 -10
32 -10 32 -53 -2 -31 -25 -44 -30 -58 -22 -10 5 -26 12 -37 15 -16 5 -16 9 -5
23 9 11 10 14 2 10 -8 -5 -22 7 -38 33 -14 23 -32 43 -40 47 -21 7 -88 -10
-93 -25 -3 -9 3 -10 23 -2 49 19 71 13 89 -24 21 -45 20 -51 -9 -64 -42 -19
-59 -14 -84 28 -17 28 -27 36 -33 27 -11 -18 -10 -27 5 -27 8 0 19 -12 26 -27
11 -25 10 -29 -11 -46 -23 -19 -23 -19 -35 9 -26 62 -9 145 36 169 14 8 43 14
65 15 32 0 44 -6 76 -41z m147 -123 c-4 -9 -13 -13 -22 -10 -14 6 -13 8 2 19
21 16 28 12 20 -9z m-176 -71 c-1 -15 -24 -12 -29 3 -3 9 2 13 12 10 10 -1 17
-7 17 -13z m143 -61 c8 -21 -1 -36 -46 -72 -44 -35 -64 -37 -81 -10 -15 22 9
53 29 37 13 -11 54 -4 54 9 0 4 -9 22 -20 40 -11 18 -20 34 -20 36 0 10 79
-28 84 -40z m-73 -37 c-13 -13 -26 -3 -16 12 3 6 11 8 17 5 6 -4 6 -10 -1 -17z"/>
<path d="M852 3248 c-22 -22 -13 -59 23 -95 38 -38 56 -36 94 13 42 54 17 94
-58 94 -26 0 -52 -5 -59 -12z m106 -32 c2 -10 -6 -29 -19 -42 l-23 -24 -23 22
c-13 12 -23 30 -23 41 0 15 5 18 24 13 14 -3 28 -1 31 4 10 15 29 7 33 -14z"/>
<path d="M4932 3143 c4 -22 43 -25 43 -3 0 8 -11 16 -23 18 -19 3 -23 0 -20
-15z"/>
<path d="M3825 3110 c-3 -6 1 -13 10 -16 19 -8 30 0 20 15 -8 14 -22 14 -30 1z"/>
<path d="M3785 3091 c-8 -15 3 -31 21 -31 9 0 14 7 12 17 -4 20 -24 28 -33 14z"/>
<path d="M4942 2926 c4 -166 23 -170 23 -4 0 90 -3 122 -13 126 -10 3 -12 -23
-10 -122z"/>
<path d="M4324 2963 c-34 -25 -15 -77 26 -71 31 4 48 32 34 56 -12 19 -43 26
-60 15z m36 -33 c0 -5 -7 -10 -15 -10 -8 0 -15 5 -15 10 0 6 7 10 15 10 8 0
15 -4 15 -10z"/>
<path d="M3786 2951 c-9 -14 33 -46 45 -34 7 7 2 15 -15 26 -14 9 -27 13 -30
8z"/>
<path d="M208 2903 c-3 -21 -1 -39 4 -41 4 -2 8 -17 8 -33 0 -22 -6 -32 -24
-38 -44 -17 -50 -79 -10 -110 25 -20 39 -21 248 -21 200 0 263 7 244 25 -4 4
-111 7 -239 8 -201 2 -233 4 -242 18 -6 9 -7 24 -4 33 6 14 32 16 227 16 140
0 220 4 220 10 0 6 -7 10 -15 10 -8 0 -15 3 -15 8 0 4 -3 16 -6 28 -3 13 1 28
13 39 13 13 14 20 5 23 -6 2 -12 17 -12 33 l0 29 -199 0 -199 0 -4 -37z m382
-8 c0 -13 -26 -15 -175 -15 -149 0 -175 2 -175 15 0 13 26 15 175 15 149 0
175 -2 175 -15z m-10 -70 l0 -35 -168 0 -168 0 4 35 4 35 164 0 164 0 0 -35z"/>
<path d="M3670 2886 c-14 -8 -28 -12 -32 -10 -5 3 -8 1 -8 -4 0 -18 13 -21 34
-7 11 8 42 15 69 15 30 0 46 4 42 10 -9 14 -76 12 -105 -4z"/>
<path d="M3796 2881 c-7 -10 18 -34 27 -25 7 8 -3 34 -13 34 -5 0 -11 -4 -14
-9z"/>
<path d="M3172 2858 c-17 -17 -15 -47 4 -55 23 -9 51 23 38 44 -14 22 -27 26
-42 11z m28 -16 c0 -13 -12 -22 -22 -16 -10 6 -1 24 13 24 5 0 9 -4 9 -8z"/>
<path d="M3708 2856 c-20 -10 -23 -19 -21 -60 1 -46 18 -81 33 -71 5 3 6 -4 3
-15 -3 -11 0 -20 6 -20 6 0 11 4 11 8 0 5 11 22 25 38 26 31 34 61 13 48 -9
-5 -8 -2 1 9 11 13 11 23 3 41 -13 29 -43 38 -74 22z m47 -36 c0 -8 -10 -16
-22 -18 -22 -3 -32 16 -16 32 12 11 38 2 38 -14z m10 -50 c4 -6 -6 -10 -24
-10 -16 0 -33 5 -36 10 -4 6 6 10 24 10 16 0 33 -4 36 -10z"/>
<path d="M3586 2833 c-11 -11 -6 -23 9 -23 8 0 15 4 15 9 0 13 -16 22 -24 14z"/>
<path d="M4487 2803 c-4 -3 -7 -30 -7 -58 0 -51 -19 -85 -47 -85 -5 0 -18 -10
-29 -22 -12 -13 -13 -18 -4 -13 8 5 33 12 55 15 l40 5 3 73 3 72 73 0 c83 0
106 -15 106 -67 0 -34 13 -48 53 -58 40 -10 57 -41 57 -102 0 -29 4 -53 9 -53
12 0 21 66 14 101 -7 37 -49 79 -79 79 -19 0 -24 5 -24 25 0 33 -25 81 -45 89
-22 8 -170 8 -178 -1z"/>
<path d="M543 2743 c-51 -2 -93 -8 -93 -13 0 -15 40 -21 120 -18 62 2 75 6 78
21 2 9 0 16 -5 15 -4 -1 -50 -4 -100 -5z"/>
<path d="M4195 2670 c-13 -25 -22 -30 -53 -31 -33 0 -35 -2 -18 -12 10 -7 38
-27 62 -44 42 -31 44 -32 54 -13 6 12 30 25 56 32 44 12 54 30 18 36 -52 8
-65 15 -74 37 -13 33 -26 31 -45 -5z"/>
<path d="M494 2609 c-3 -6 -1 -16 4 -21 13 -13 45 8 36 23 -7 12 -31 11 -40
-2z"/>
<path d="M935 2578 c11 -62 15 -65 41 -22 33 54 31 64 -12 64 l-36 0 7 -42z"/>
<path d="M3035 2611 c-7 -12 12 -24 25 -16 11 7 4 25 -10 25 -5 0 -11 -4 -15
-9z"/>
<path d="M4425 2580 c-3 -5 -3 -10 2 -10 154 -6 302 -3 300 5 -5 14 -293 19
-302 5z"/>
<path d="M300 2560 c0 -13 7 -20 20 -20 13 0 20 7 20 20 0 13 -7 20 -20 20
-13 0 -20 -7 -20 -20z"/>
<path d="M3850 2517 c-54 -15 -106 -45 -139 -81 -38 -40 -17 -42 23 -3 48 48
136 80 202 74 117 -12 205 -96 221 -212 3 -25 10 -45 15 -45 14 0 0 87 -19
125 -59 117 -184 175 -303 142z"/>
<path d="M4480 2515 c0 -13 21 -15 125 -15 104 0 125 2 125 15 0 13 -21 15
-125 15 -104 0 -125 -2 -125 -15z"/>
<path d="M3320 2470 c0 -13 20 -13 40 0 12 8 9 10 -12 10 -16 0 -28 -4 -28
-10z"/>
<path d="M3414 2444 c14 -15 26 -31 26 -35 0 -5 5 -9 10 -9 7 0 7 6 0 19 -14
26 -39 51 -52 51 -6 0 1 -12 16 -26z"/>
<path d="M2996 2451 c-9 -15 23 -36 36 -23 5 5 7 15 4 21 -9 13 -33 14 -40 2z"/>
<path d="M307 2444 c-3 -4 -32 -9 -64 -13 -56 -6 -58 -7 -61 -36 -4 -41 53
-372 72 -417 8 -19 22 -38 31 -41 12 -5 15 -27 15 -122 l0 -115 276 0 c245 0
275 2 272 16 -3 13 -27 16 -168 17 l-165 2 0 30 0 30 163 3 c97 1 162 6 162
12 0 6 -64 10 -165 10 -91 0 -165 4 -165 9 0 16 44 21 193 21 124 0 147 2 147
15 0 13 -23 15 -149 15 -123 0 -150 3 -155 15 -8 21 -36 19 -36 -2 0 -10 -7
-27 -15 -37 -9 -12 -15 -42 -15 -78 0 -51 -2 -58 -20 -58 -19 0 -20 7 -20 105
l0 105 198 2 c167 3 197 5 197 18 0 11 -14 16 -50 18 -54 4 -65 12 -65 55 0
21 7 30 28 38 25 10 26 12 10 23 -15 11 -18 30 -18 119 0 103 0 105 -24 111
-15 4 -26 14 -28 29 -2 16 -11 23 -31 25 -15 2 -32 12 -38 23 -9 18 -17 20
-60 14 -48 -7 -49 -6 -49 19 l0 26 -98 0 c-54 0 -101 -3 -105 -6z m133 -129
c0 -63 4 -105 10 -105 6 0 10 42 10 105 0 87 3 105 15 105 11 0 15 -13 15 -52
0 -29 3 -104 7 -165 l6 -113 -46 0 -47 0 0 165 c0 140 2 165 15 165 12 0 15
-18 15 -105z m-151 -60 c13 -77 25 -150 28 -162 3 -15 -1 -23 -17 -28 -31 -10
-36 1 -54 124 -30 205 -30 209 -9 213 10 3 21 2 24 -1 3 -3 16 -69 28 -146z
m89 -7 c-3 -137 -5 -163 -18 -163 -11 0 -20 31 -37 130 -12 72 -22 145 -22
163 -1 31 0 32 39 32 l40 0 -2 -162z m172 -18 c0 -118 -2 -140 -15 -140 -13 0
-15 22 -15 140 0 118 2 140 15 140 13 0 15 -22 15 -140z m74 118 c3 -13 6 -76
6 -140 l0 -118 -25 0 -25 0 0 140 c0 130 1 140 19 140 11 0 21 -9 25 -22z m43
-210 c-2 -29 -3 -6 -3 52 0 58 1 81 3 53 2 -29 2 -77 0 -105z m43 52 c0 -60
-4 -100 -10 -100 -6 0 -10 40 -10 100 0 60 4 100 10 100 6 0 10 -40 10 -100z
m-18 -175 l-4 -45 -42 0 c-22 0 -78 -3 -123 -7 l-83 -6 0 33 c0 18 -7 42 -17
52 -16 17 -11 18 128 18 l144 0 -3 -45z m-332 11 c0 -44 -10 -56 -46 -56 -29
0 -34 3 -34 24 0 27 33 56 62 56 12 0 18 -8 18 -24z m48 -14 c2 -22 -2 -34
-13 -38 -23 -9 -27 -1 -19 40 8 44 28 42 32 -2z m-48 -187 c0 -87 -3 -105 -15
-105 -12 0 -15 18 -15 105 0 87 3 105 15 105 12 0 15 -18 15 -105z m50 0 c0
-63 -4 -105 -10 -105 -6 0 -10 42 -10 105 0 63 4 105 10 105 6 0 10 -42 10
-105z"/>
<path d="M3271 2427 c-6 -6 -11 -19 -11 -29 0 -21 67 -98 85 -98 21 0 75 69
75 95 0 13 -8 29 -18 34 -24 13 -117 12 -131 -2z m117 -30 c4 -19 -24 -57 -41
-57 -15 0 -57 41 -57 56 0 7 15 15 33 17 50 6 61 3 65 -16z"/>
<path d="M827 2423 c-13 -12 -7 -23 13 -23 11 0 20 7 20 15 0 15 -21 21 -33 8z"/>
<path d="M3800 2383 c-59 -21 -90 -99 -65 -160 17 -41 131 -163 152 -163 19 0
169 151 178 178 26 86 -73 177 -140 128 -16 -12 -23 -11 -49 5 -31 19 -49 22
-76 12z m74 -55 c9 -12 16 -35 16 -50 0 -16 5 -28 10 -28 6 0 10 10 10 23 0
35 28 67 57 67 38 0 63 -27 63 -68 0 -29 -11 -45 -70 -106 l-69 -71 -56 58
c-79 81 -92 123 -54 171 26 33 71 35 93 4z"/>
<path d="M4480 2295 l0 -95 -30 0 c-23 0 -30 -4 -30 -20 0 -13 7 -20 20 -20
28 0 28 -50 0 -57 -24 -6 -36 -39 -20 -58 17 -20 634 -22 627 -2 -3 9 -71 11
-306 9 -279 -3 -302 -2 -299 14 3 15 29 17 286 18 178 1 283 5 285 11 1 6 -93
11 -265 13 -229 2 -268 4 -268 17 0 13 38 15 274 15 217 0 276 3 285 13 13 16
5 27 -21 27 -16 0 -18 10 -18 105 l0 105 -260 0 -260 0 0 -95z m68 -17 l-2
-83 -6 80 c-6 90 -18 83 -23 -15 -3 -62 -3 -61 -5 18 -2 76 -1 82 18 82 19 0
20 -6 18 -82z m62 5 l-5 -78 -3 68 c-2 37 -7 67 -12 67 -5 0 -11 -30 -13 -67
l-3 -68 -2 78 c-2 74 -1 77 21 77 21 0 22 -2 17 -77z m55 67 c3 -5 -1 -10 -9
-10 -12 0 -16 -16 -19 -72 l-3 -73 -2 83 c-2 66 1 82 12 82 8 0 18 -4 21 -10z
m35 -65 c0 -43 -4 -75 -10 -75 -5 0 -10 20 -10 44 0 44 9 106 16 106 2 0 4
-34 4 -75z m23 -12 c2 -35 0 -63 -5 -63 -4 0 -7 35 -7 78 1 85 6 80 12 -15z
m35 9 c2 -45 -1 -72 -8 -72 -5 0 -10 17 -10 38 0 20 -3 54 -7 76 -5 31 -3 38
8 34 10 -3 15 -26 17 -76z m31 1 l-2 -78 -8 69 c-7 64 -5 86 7 86 2 0 3 -35 3
-77z m33 5 c3 -70 2 -86 -6 -77 -9 11 -16 149 -7 149 5 0 11 -33 13 -72z m25
-40 c-2 -24 -4 -7 -4 37 0 44 2 63 4 43 2 -21 2 -57 0 -80z m52 32 c1 -44 -2
-70 -8 -70 -7 0 -11 29 -11 76 0 94 16 90 19 -6z m41 -1 c0 -55 -3 -69 -15
-69 -12 0 -15 14 -15 68 0 38 3 72 6 75 16 16 24 -9 24 -74z m39 -36 c1 -18
-3 -33 -9 -33 -6 0 -9 32 -9 78 1 71 2 73 10 32 4 -25 8 -60 8 -77z m-312 -10
c-2 -16 -4 -3 -4 27 0 30 2 43 4 28 2 -16 2 -40 0 -55z"/>
<path d="M3642 2300 c0 -14 2 -19 5 -12 2 6 2 18 0 25 -3 6 -5 1 -5 -13z"/>
<path d="M3641 2235 c-1 -34 43 -135 59 -135 14 0 13 15 -3 29 -8 6 -19 30
-26 53 -7 24 -17 52 -21 63 -7 17 -9 15 -9 -10z"/>
<path d="M3735 2070 c9 -14 85 -52 85 -43 0 8 -73 53 -85 53 -3 0 -3 -5 0 -10z"/>
<path d="M4190 2045 c0 -8 7 -15 15 -15 8 0 15 7 15 15 0 8 -7 15 -15 15 -8 0
-15 -7 -15 -15z"/>
<path d="M3398 2029 c-28 -16 -23 -58 9 -70 14 -5 32 -8 40 -5 21 8 16 64 -6
76 -23 12 -22 12 -43 -1z"/>
<path d="M3980 2025 c-19 -23 -8 -26 20 -5 19 15 21 20 9 20 -9 0 -22 -7 -29
-15z"/>
<path d="M3923 1963 c-15 -6 -17 -49 -3 -58 18 -11 51 15 48 38 -3 22 -22 30
-45 20z"/>
<path d="M3435 1918 c4 -13 15 -40 25 -61 l18 -38 -34 -25 c-18 -14 -46 -45
-60 -69 -19 -29 -33 -41 -45 -38 -30 8 -58 -16 -69 -59 -11 -38 -12 -80 -7
-213 2 -45 0 -50 -20 -53 -13 -2 -30 -13 -38 -25 -17 -24 -20 -103 -5 -142 5
-14 17 -69 26 -122 19 -110 45 -177 78 -198 13 -9 31 -36 40 -60 10 -24 30
-55 45 -68 26 -22 27 -27 25 -97 -2 -51 -7 -76 -16 -79 -32 -11 -77 -70 -94
-126 -21 -69 -27 -75 -74 -75 -46 0 -70 -14 -52 -32 10 -10 90 -13 342 -13
373 0 340 9 340 -88 0 -41 -3 -49 -25 -59 -14 -6 -25 -17 -25 -25 0 -11 66
-13 360 -13 314 0 361 2 366 15 4 9 -4 25 -20 40 -32 30 -34 70 -3 96 l22 19
-22 6 -23 6 20 25 c29 37 25 65 -15 102 -41 37 -50 91 -15 91 28 0 26 30 -2
31 -58 3 68 18 155 18 83 1 100 4 117 21 26 26 25 42 -5 78 -14 17 -28 44 -31
61 l-6 31 46 0 c51 0 57 9 25 41 l-22 22 22 16 c12 9 19 20 15 24 -4 4 -83 7
-176 7 -153 0 -189 -6 -158 -25 15 -10 12 -55 -5 -61 -8 -4 -15 -12 -15 -20 0
-11 25 -14 125 -14 77 0 125 -4 125 -10 0 -6 -42 -10 -106 -10 -73 0 -110 -4
-118 -13 -17 -19 -196 -11 -196 9 0 25 -47 108 -69 122 -12 7 -21 18 -21 25 0
6 -6 24 -14 39 -13 24 -12 27 6 31 23 7 21 25 -20 152 -14 44 -28 108 -32 142
-6 66 -27 100 -64 105 -17 2 -21 10 -21 43 0 32 5 42 25 52 54 27 66 78 27
117 -13 13 -30 41 -38 62 -11 30 -21 40 -41 42 -19 2 -34 15 -51 45 -14 23
-37 53 -51 66 l-26 24 20 32 c11 18 20 37 20 44 0 21 -18 11 -39 -23 l-21 -33
-52 18 c-66 23 -186 25 -254 4 -27 -8 -52 -15 -55 -15 -3 0 -16 23 -29 50 -24
51 -47 69 -35 28z m378 -98 c54 -20 91 -52 122 -105 17 -30 17 -30 -10 3 -15
18 -50 45 -78 60 -47 25 -62 27 -162 27 -104 0 -114 -2 -180 -33 -38 -18 -81
-43 -95 -55 l-25 -22 25 30 c42 50 98 87 160 106 53 16 187 10 243 -11z m18
-71 c31 -15 65 -40 77 -57 l22 -30 -218 -6 c-119 -4 -230 -9 -245 -11 -15 -3
-26 -1 -23 3 3 4 0 14 -5 22 -8 13 -10 13 -18 0 -6 -9 -6 -19 1 -27 8 -10 6
-13 -5 -13 -21 0 -30 16 -22 39 7 22 98 77 160 97 24 8 76 13 130 11 73 -2
101 -7 146 -28z m-501 -379 c0 -277 -7 -346 -27 -252 -10 47 -9 514 1 530 22
36 26 -7 26 -278z m694 264 c11 -28 7 -162 -5 -170 -19 -11 -29 18 -29 88 0
68 6 98 20 98 4 0 11 -7 14 -16z m-81 -244 c5 -176 4 -253 -4 -272 -18 -45
-59 -51 -307 -47 -193 4 -224 6 -239 21 -15 16 -15 19 -1 35 26 31 29 52 7 72
-19 18 -20 29 -17 214 2 107 7 199 11 204 9 8 302 20 457 19 l85 -1 8 -245z
m124 128 c-2 -13 -4 -5 -4 17 -1 22 1 32 4 23 2 -10 2 -28 0 -40z m-60 -155
c-2 -16 -4 -3 -4 27 0 30 2 43 4 28 2 -16 2 -40 0 -55z m-767 -33 c0 -5 -5
-10 -11 -10 -5 0 -7 5 -4 10 3 6 8 10 11 10 2 0 4 -4 4 -10z m10 -49 c0 -21
-26 -36 -36 -20 -9 15 3 39 21 39 8 0 15 -9 15 -19z m806 -18 c-11 -11 -19 6
-11 24 8 17 8 17 12 0 3 -10 2 -21 -1 -24z m37 22 c4 -8 2 -17 -3 -20 -6 -4
-10 -4 -10 -1 0 2 -3 11 -6 20 -3 9 -2 16 4 16 5 0 12 -7 15 -15z m-42 -160
c12 -44 21 -90 21 -102 -3 -37 16 -73 37 -73 25 0 39 -67 20 -101 -6 -12 -14
-45 -18 -73 l-6 -51 -55 -2 c-30 -1 -59 -2 -64 -2 -5 -1 1 -12 13 -25 17 -18
22 -33 19 -67 -2 -37 -6 -43 -22 -41 -11 2 -30 -2 -43 -9 -35 -19 -49 3 -56
81 -5 64 -5 65 26 85 38 25 68 82 75 142 3 29 13 53 28 68 29 29 32 75 5 82
-24 6 -31 42 -30 162 l0 96 15 -45 c8 -25 24 -81 35 -125z m51 66 c4 -48 -18
-51 -31 -5 -8 29 -7 40 2 46 17 10 26 -2 29 -41z m-844 11 c4 -26 -22 -31 -32
-6 -10 26 -7 36 12 32 9 -2 18 -13 20 -26z m122 -31 c0 -6 -4 -13 -10 -16 -5
-3 -10 1 -10 9 0 9 5 16 10 16 6 0 10 -4 10 -9z m-107 -38 c6 -37 2 -53 -12
-53 -10 0 -23 69 -15 82 11 17 22 7 27 -29z m857 -38 c0 -37 -22 -49 -34 -19
-12 32 -6 54 14 54 16 0 20 -7 20 -35z m-840 -46 c0 -5 -7 -9 -15 -9 -15 0
-20 12 -9 23 8 8 24 -1 24 -14z m98 -11 c8 -7 12 -41 12 -102 0 -89 1 -93 30
-121 25 -24 40 -29 112 -36 46 -4 131 -8 191 -8 94 -1 109 1 127 19 26 26 32
52 28 134 -3 78 -16 94 -64 81 l-29 -9 35 -5 35 -6 -3 -65 c-2 -39 -10 -71
-18 -80 -22 -22 -376 -22 -398 0 -10 10 -18 45 -22 102 l-7 87 269 3 c148 2
271 2 273 0 3 -1 0 -47 -6 -101 -18 -177 -49 -195 -341 -189 -168 3 -169 3
-206 32 -29 22 -36 33 -32 50 3 11 -3 39 -14 61 -10 22 -22 71 -26 109 l-7 68
24 -7 c13 -4 30 -12 37 -17z m775 -20 c7 -25 3 -33 -12 -23 -13 8 -15 45 -2
45 5 0 11 -10 14 -22z m-43 -13 c0 -14 -4 -25 -10 -25 -11 0 -14 33 -3 43 11
11 13 8 13 -18z m-820 -15 c-21 -14 -30 -12 -30 4 0 18 22 27 35 14 6 -6 5
-12 -5 -18z m720 11 c0 -22 -16 -36 -24 -22 -8 12 3 41 15 41 5 0 9 -9 9 -19z
m-708 -46 c0 -5 -5 -11 -11 -13 -6 -2 -11 4 -11 13 0 9 5 15 11 13 6 -2 11 -8
11 -13z m8 -46 c0 -6 -4 -7 -10 -4 -5 3 -10 11 -10 16 0 6 5 7 10 4 6 -3 10
-11 10 -16z m1420 -53 c0 -2 3 -11 6 -20 5 -12 0 -16 -19 -16 -28 0 -42 14
-32 30 6 10 45 15 45 6z m-526 -41 c7 -20 -23 -33 -34 -14 -5 7 -6 17 -4 21 9
13 32 9 38 -7z m-54 -51 c0 -19 -4 -34 -10 -34 -5 0 -10 18 -10 41 0 24 4 38
10 34 6 -3 10 -22 10 -41z m88 -18 c3 -12 -1 -17 -10 -14 -7 3 -15 13 -16 22
-3 12 1 17 10 14 7 -3 15 -13 16 -22z m-51 -8 c-3 -8 -6 -5 -6 6 -1 11 2 17 5
13 3 -3 4 -12 1 -19z m482 -14 c17 -4 31 -13 31 -20 0 -16 -16 -19 -25 -4 -3
6 -50 10 -106 10 -64 0 -98 4 -94 10 7 11 144 14 194 4z m-1129 -24 c20 -6 22
-9 9 -14 -25 -11 -102 -3 -107 12 -4 14 56 15 98 2z m310 -11 c20 -37 6 -50
-52 -47 -28 2 -53 8 -55 13 -2 7 12 9 37 7 25 -3 40 0 40 7 0 6 -17 11 -40 11
-22 0 -40 4 -40 9 0 9 23 14 82 19 10 1 22 -7 28 -19z m-139 -21 c2 -77 -4
-101 -36 -144 l-33 -43 -12 29 c-6 16 -20 36 -31 46 -24 21 -25 85 -3 119 14
21 24 25 65 25 48 0 49 0 50 -32z m-195 -6 c27 2 43 -1 41 -7 -2 -5 -30 -10
-63 -10 -49 0 -59 3 -62 18 -3 16 -1 17 18 7 12 -7 42 -10 66 -8z m1077 11
c-24 -2 -62 -2 -85 0 -24 2 -5 4 42 4 47 0 66 -2 43 -4z m135 -21 c5 -32 -31
-42 -154 -42 -93 0 -104 2 -104 18 0 16 12 18 103 20 77 2 104 6 112 18 14 21
39 13 43 -14z m-330 5 c15 -12 16 -49 0 -65 -8 -8 -63 -12 -180 -12 l-168 0 0
40 0 39 143 4 c191 4 190 4 205 -6z m-956 -69 c-9 -9 -12 -7 -12 12 0 19 3 21
12 12 9 -9 9 -15 0 -24z m111 12 c-4 -16 -14 -20 -44 -20 -56 0 -53 28 4 33
23 2 43 4 44 5 0 1 -1 -7 -4 -18z m277 -6 c0 -12 -10 -14 -47 -12 -66 4 -70
28 -4 28 39 0 51 -4 51 -16z m40 1 c0 -8 -4 -15 -10 -15 -5 0 -10 7 -10 15 0
8 5 15 10 15 6 0 10 -7 10 -15z m-320 -60 c30 -16 74 -65 65 -73 -3 -3 -12 4
-21 16 -23 33 -67 52 -121 52 -55 -1 -90 -17 -110 -51 l-13 -24 2 25 c7 58
127 92 198 55z m341 -5 c13 -10 19 -19 14 -20 -6 0 -16 5 -23 12 -15 15 -102
14 -133 -2 -13 -7 -34 -22 -46 -33 -13 -11 -23 -16 -23 -10 0 6 16 25 35 42
31 27 43 31 94 31 44 0 65 -5 82 -20z m501 8 c8 -7 20 -28 26 -45 l11 -33
-240 0 -239 0 0 38 c0 21 3 42 7 45 3 4 99 7 213 7 150 0 210 -3 222 -12z
m-835 -53 c26 -17 26 -19 8 -26 -27 -10 -185 -11 -185 -1 0 11 29 37 50 45 26
11 99 0 127 -18z m331 2 c8 -8 11 -20 8 -26 -12 -19 -176 -11 -176 9 0 4 17
15 38 24 43 18 107 15 130 -7z m526 -67 c20 -7 26 -17 26 -39 0 -54 -13 -56
-273 -53 l-236 3 -6 29 c-3 16 -1 38 5 49 10 20 19 21 235 21 123 0 235 -4
249 -10z m-784 -14 c0 -16 -81 -26 -211 -26 -72 0 -89 3 -89 15 0 12 23 15
123 18 67 1 134 4 150 5 17 1 27 -3 27 -12z m219 -2 c14 -12 -20 -18 -88 -16
-63 3 -81 7 -81 18 0 12 14 13 83 8 45 -4 84 -8 86 -10z m95 -117 c22 -16 18
-65 -5 -80 -29 -18 -49 -1 -49 41 0 54 17 66 54 39z"/>
<path d="M3832 1618 c-10 -13 -15 -34 -13 -55 0 -7 12 -20 25 -28 46 -30 93
24 66 74 -12 24 -61 29 -78 9z m56 -40 c-2 -13 -10 -23 -18 -23 -8 0 -16 10
-18 23 -3 17 2 22 18 22 16 0 21 -5 18 -22z"/>
<path d="M3569 1555 c-48 -36 -69 -79 -69 -145 0 -43 6 -64 25 -93 14 -20 30
-37 36 -37 6 0 -1 14 -15 30 -47 56 -47 144 1 200 52 63 124 77 184 37 73 -48
88 -142 34 -213 -24 -32 -25 -35 -6 -25 52 28 71 131 35 192 -47 80 -154 105
-225 54z"/>
<path d="M3622 1524 c-58 -24 -78 -93 -50 -170 11 -30 16 -34 64 -40 73 -9 93
0 116 53 17 39 19 52 9 83 -20 67 -80 99 -139 74z m69 -64 c5 0 16 -11 24 -24
13 -19 14 -28 4 -50 -10 -22 -19 -26 -55 -26 -34 0 -46 5 -54 21 -23 42 16 97
58 83 8 -2 18 -4 23 -4z"/>
<path d="M3642 1438 c-19 -19 -14 -56 8 -63 26 -8 50 11 50 40 0 32 -35 46
-58 23z"/>
<path d="M3622 1208 c3 -32 4 -33 48 -33 43 0 45 1 45 30 0 29 -2 30 -48 33
l-48 3 3 -33z m68 -3 c0 -9 -9 -15 -25 -15 -16 0 -25 6 -25 15 0 9 9 15 25 15
16 0 25 -6 25 -15z"/>
<path d="M3832 1174 c-17 -12 -22 -24 -20 -47 3 -29 6 -32 41 -35 26 -2 45 2
58 14 55 50 -17 112 -79 68z m77 -23 c8 -14 7 -22 -3 -30 -11 -9 -15 -7 -19
10 -3 13 -10 18 -17 14 -7 -4 -10 -15 -7 -25 3 -13 0 -17 -9 -13 -17 6 -18 35
-2 51 18 18 46 15 57 -7z"/>
<path d="M3472 988 c-16 -16 -16 -110 0 -126 8 -8 65 -12 189 -12 l177 0 6 38
c4 20 2 51 -3 67 -8 27 -9 24 -10 -26 -1 -55 -2 -57 -32 -63 -41 -8 -247 -8
-288 0 -32 7 -32 7 -29 63 l3 56 90 6 90 5 -90 2 c-60 1 -95 -2 -103 -10z"/>
<path d="M3672 951 c-8 -4 -12 -19 -10 -32 2 -20 9 -24 44 -27 45 -3 77 18 72
47 -4 18 -83 28 -106 12z m71 -28 c-13 -2 -35 -2 -50 0 -16 2 -5 4 22 4 28 0
40 -2 28 -4z"/>
<path d="M3266 1913 c-11 -11 -6 -23 9 -23 8 0 15 4 15 9 0 13 -16 22 -24 14z"/>
<path d="M4405 1900 c-3 -5 -12 -7 -20 -3 -11 4 -15 -2 -15 -21 0 -14 -4 -26
-10 -26 -5 0 -10 -4 -10 -10 0 -5 6 -10 14 -10 15 0 19 -10 31 -68 l7 -34 32
31 c18 17 39 31 48 31 9 0 20 5 23 10 3 6 15 10 26 10 28 0 23 15 -21 60 -28
29 -47 40 -69 40 -16 0 -32 -4 -36 -10z m75 -30 c17 -31 -19 -80 -58 -80 -19
0 -35 57 -22 79 14 28 65 29 80 1z"/>
<path d="M4441 1851 c-7 -5 -10 -14 -6 -20 5 -9 10 -9 21 0 26 22 14 38 -15
20z"/>
<path d="M4655 1820 c-33 -6 -33 -6 -20 -112 l8 -58 -80 0 c-105 0 -130 -24
-78 -75 l24 -25 -27 -2 c-15 -1 -49 -2 -77 -2 -36 -1 -50 -5 -53 -16 -2 -13
16 -15 123 -12 101 3 125 6 125 18 0 9 -11 14 -35 14 -33 0 -35 2 -25 20 11
21 7 25 -33 32 -10 2 -18 8 -17 13 0 6 35 10 82 10 l82 0 18 -115 c9 -63 17
-123 18 -133 0 -16 -12 -17 -147 -15 -145 3 -148 3 -151 26 -3 22 -2 22 117
22 74 0 121 4 121 10 0 6 -43 10 -109 10 -120 0 -143 4 -134 26 4 11 29 14
109 14 86 0 104 3 104 15 0 12 -19 15 -115 15 l-115 0 -1 -37 c-1 -21 -1 -53
0 -70 2 -24 -2 -33 -13 -33 -9 0 -16 -7 -16 -15 0 -13 42 -15 321 -15 300 0
320 1 317 18 -2 13 -15 18 -56 20 -28 2 -52 5 -52 8 0 3 21 84 46 180 25 97
43 179 40 182 -4 3 -22 11 -42 18 -40 14 -43 10 -65 -84 -19 -77 -26 -69 -34
37 -4 56 -12 105 -19 110 -12 10 -90 11 -141 1z m65 -258 c20 -165 21 -207 5
-190 -3 3 -19 94 -36 203 -25 161 -28 200 -17 206 19 12 23 -9 48 -219z m79
74 c11 -111 11 -150 3 -158 -9 -9 -12 -2 -12 27 0 22 -7 94 -15 160 -8 65 -15
121 -15 123 0 2 6 2 13 0 8 -3 17 -53 26 -152z m-51 47 c18 -149 26 -249 18
-242 -6 6 -45 280 -46 322 0 9 4 17 8 17 4 0 13 -44 20 -97z m167 38 c10 -18
-26 -151 -41 -151 -8 0 -14 10 -14 23 0 21 16 99 25 125 5 14 21 16 30 3z"/>
<path d="M206 1528 c-12 -17 -16 -49 -16 -128 0 -145 4 -150 119 -150 119 0
121 2 121 152 0 146 -2 148 -123 148 -77 0 -87 -2 -101 -22z m188 -14 c12 -12
16 -37 16 -102 0 -48 -3 -97 -6 -109 -8 -29 -53 -38 -125 -26 l-54 8 -3 113
c-3 109 -2 113 20 122 39 15 135 12 152 -6z"/>
<path d="M247 1493 c-15 -14 -6 -53 19 -83 l27 -31 31 30 c25 24 35 28 44 19
9 -9 12 -6 12 14 0 15 3 33 6 42 5 14 -4 16 -63 16 -38 0 -73 -3 -76 -7z m103
-27 c0 -3 -14 -14 -30 -26 l-31 -22 -19 23 c-11 12 -20 24 -20 26 0 1 23 3 50
3 28 0 50 -2 50 -4z"/>
<path d="M230 1362 c0 -11 64 -72 76 -72 18 0 80 63 66 68 -8 2 -24 -5 -36
-17 -29 -27 -42 -27 -62 4 -15 24 -44 35 -44 17z"/>
<path d="M850 1515 c0 -9 5 -15 11 -13 6 2 11 8 11 13 0 5 -5 11 -11 13 -6 2
-11 -4 -11 -13z"/>
<path d="M740 1270 c-8 -5 -27 -10 -42 -10 -26 0 -28 -3 -28 -44 l0 -43 77 -6
c49 -4 82 -2 90 5 21 17 15 53 -13 82 -28 27 -58 33 -84 16z m64 -26 c23 -23
20 -54 -5 -54 -63 0 -84 65 -22 69 6 1 19 -6 27 -15z"/>
<path d="M4475 1220 c3 -6 19 -17 36 -25 17 -9 29 -24 29 -35 0 -19 7 -20 140
-20 104 0 148 -4 169 -15 45 -23 52 -65 11 -65 -13 0 -20 8 -22 28 l-3 27
-174 0 c-129 0 -175 -3 -178 -12 -4 -10 36 -13 161 -15 229 -4 224 -22 -6 -26
-108 -1 -178 -6 -178 -12 0 -6 75 -10 195 -10 167 0 195 -2 195 -15 0 -13 -28
-15 -196 -15 -151 0 -195 -3 -192 -12 4 -10 51 -12 199 -9 193 3 194 3 222 29
38 36 37 82 -4 116 -18 15 -43 26 -60 26 -17 0 -29 5 -29 13 0 8 -10 23 -23
35 -22 20 -33 22 -161 22 -89 0 -135 -3 -131 -10z m263 -32 c3 -16 -6 -18 -90
-18 -89 0 -118 8 -118 32 0 5 46 7 102 6 89 -3 103 -5 106 -20z"/>
<path d="M407 1144 c-4 -4 -7 -80 -7 -168 0 -89 -4 -166 -8 -173 -5 -8 -44
-13 -112 -15 -87 -3 -105 -6 -108 -19 -2 -10 11 -25 33 -38 35 -20 47 -21 391
-21 l354 0 0 -25 0 -25 -357 -2 -358 -3 3 -30 c2 -23 -5 -38 -28 -60 -55 -52
-48 -55 143 -55 l172 0 0 -46 c1 -55 28 -84 81 -84 46 0 54 -23 20 -55 -35
-32 -36 -86 -1 -120 l24 -25 347 0 c307 0 345 2 334 15 -7 8 -18 15 -26 15 -8
0 -14 15 -16 42 -2 36 -8 46 -35 63 -37 23 -43 51 -13 60 58 18 69 88 21 136
-27 27 -35 29 -100 29 -38 0 -73 5 -76 10 -3 6 -19 10 -35 10 -30 0 -50 22
-50 54 0 12 11 16 45 16 33 0 45 4 45 15 0 11 -12 15 -45 15 -25 0 -45 4 -45
9 0 28 15 41 45 41 20 0 35 6 39 15 3 8 15 15 26 15 19 0 39 25 28 35 -2 3
-37 8 -77 11 -61 6 -71 9 -65 23 24 56 16 96 -27 146 -17 19 -26 35 -20 35 23
0 10 59 -22 106 l-34 49 -240 3 c-131 1 -242 -1 -246 -4z m58 -187 c0 -207
-18 -210 -26 -5 -3 84 -4 157 -2 161 3 4 10 6 16 4 9 -3 12 -50 12 -160z m95
137 c-13 -32 -13 -219 -1 -262 l10 -32 -40 0 -39 0 0 160 0 160 40 0 c38 0 39
-1 30 -26z m355 -17 c14 -24 25 -47 25 -50 0 -4 -28 -7 -63 -7 -41 0 -70 -5
-86 -16 -17 -12 -26 -13 -34 -5 -17 17 -55 13 -67 -8 -28 -52 10 -97 56 -66
24 15 24 15 24 -19 0 -38 21 -66 51 -66 15 0 19 7 19 38 0 21 6 47 14 57 12
17 16 18 31 5 27 -23 34 -52 19 -82 -27 -52 -52 -60 -173 -56 -147 4 -155 11
-160 139 -4 103 2 132 29 159 18 18 34 20 155 20 l134 0 26 -43z m-74 -123
c-12 -19 -21 -49 -21 -66 0 -26 -2 -29 -15 -18 -15 13 -22 100 -8 113 3 4 20
7 36 7 l29 0 -21 -36z m93 -1 c44 -44 52 -72 37 -124 -11 -36 -14 -39 -49 -39
-30 1 -34 3 -19 11 9 5 24 23 32 39 14 28 14 33 -5 67 -11 21 -27 48 -36 61
-26 35 -1 26 40 -15z m33 -368 l22 -45 -373 0 c-205 0 -376 3 -379 6 -3 4 0
16 8 28 8 11 15 28 15 38 0 17 21 18 343 18 l342 0 22 -45z m263 -95 c42 -42
11 -100 -52 -100 -24 0 -28 -4 -28 -30 l0 -30 -152 3 -153 2 -5 35 -5 35 -130
3 c-88 2 -132 7 -137 15 -4 7 -8 29 -8 50 l0 37 325 0 c312 0 326 -1 345 -20z
m11 -216 c9 -11 10 -20 2 -32 -9 -15 -41 -17 -304 -17 -275 0 -294 1 -297 18
-9 47 -11 47 296 47 252 0 291 -2 303 -16z"/>
<path d="M3210 671 c-8 -16 -21 -21 -50 -21 -29 0 -43 -5 -52 -20 -9 -14 -19
-18 -35 -14 -18 5 -31 -2 -56 -30 -26 -27 -42 -36 -68 -37 -29 0 -31 -2 -13
-9 12 -5 100 -6 197 -3 l175 6 -21 28 c-11 16 -26 29 -33 29 -9 0 -12 14 -11
41 2 47 -15 62 -33 30z"/>
</g>
</svg>