<?xml version="1.0" standalone="no"?>
<!DOCTYPE svg PUBLIC "-//W3C//DTD SVG 20010904//EN"
 "http://www.w3.org/TR/2001/REC-SVG-20010904/DTD/svg10.dtd">
<svg version="1.0" xmlns="http://www.w3.org/2000/svg"
 width="512.000000pt" height="512.000000pt" viewBox="0 0 512.000000 512.000000"
 preserveAspectRatio="xMidYMid meet">
<metadata>
Created by potrace 1.16, written by Peter Selinger 2001-2019
</metadata>
<g transform="translate(0.000000,512.000000) scale(0.100000,-0.100000)"
fill="#000000" stroke="none">
<path d="M2475 4736 c-49 -21 -70 -52 -70 -103 0 -39 5 -49 42 -84 33 -30 38
-39 23 -39 -10 0 -31 -10 -45 -22 -22 -20 -27 -34 -32 -95 l-6 -72 -41 -5
c-351 -40 -440 -75 -501 -201 -22 -45 -28 -73 -33 -160 -2 -58 -8 -105 -13
-105 -4 0 -31 -18 -59 -41 -73 -58 -91 -102 -91 -229 -1 -150 29 -216 119
-267 36 -20 52 -37 69 -74 24 -55 85 -100 166 -124 43 -13 211 -31 350 -38
l49 -2 -21 -27 c-12 -14 -21 -40 -21 -56 l0 -30 -202 -4 -203 -4 -83 -43 c-45
-24 -88 -51 -95 -60 -19 -25 -97 -59 -149 -64 -93 -9 -135 -65 -188 -253 -34
-123 -37 -169 -14 -202 19 -28 65 -52 99 -52 28 0 31 -13 14 -72 -9 -33 -14
-38 -39 -38 -43 0 -81 -57 -123 -188 -50 -153 -54 -190 -26 -226 19 -24 20
-30 7 -37 -91 -51 -197 -161 -185 -193 3 -8 0 -17 -8 -19 -17 -7 -36 -98 -28
-139 14 -74 62 -135 76 -95 2 6 9 -6 15 -28 12 -43 39 -73 109 -119 80 -53
112 -9 43 59 -48 47 -51 63 -10 57 24 -3 36 -14 51 -44 28 -54 43 -40 35 31
-13 99 -3 134 50 182 14 13 37 34 50 45 l23 22 18 -44 c10 -24 26 -47 36 -50
26 -8 21 -24 -23 -61 -34 -29 -40 -41 -40 -73 0 -22 8 -47 19 -61 17 -21 21
-22 58 -11 79 24 147 126 129 196 -3 14 -1 28 5 31 28 18 -22 159 -72 206
l-31 29 28 57 c40 86 74 189 89 273 15 83 9 105 -32 121 -21 8 -24 13 -18 37
4 15 15 79 25 142 17 112 18 114 19 50 2 -121 21 -253 41 -295 12 -24 20 -62
20 -91 0 -109 42 -207 118 -276 50 -45 93 -58 195 -58 l77 0 0 -179 0 -179
-27 -7 c-50 -12 -53 -19 -53 -146 0 -130 1 -127 -69 -172 -57 -37 -81 -95 -81
-200 l0 -89 -45 -50 c-25 -28 -45 -56 -45 -64 0 -11 -21 -14 -97 -15 -113 -1
-147 -8 -151 -32 -3 -16 57 -17 957 -17 837 0 961 2 961 15 0 26 -38 35 -154
35 -90 0 -116 3 -116 13 0 7 -13 31 -30 53 -28 37 -29 44 -30 135 0 129 -26
197 -86 230 -23 12 -24 16 -24 133 0 135 -9 162 -58 168 l-27 3 -3 185 -2 186
45 12 c53 14 120 76 150 137 10 22 21 67 23 100 3 42 11 69 27 90 12 17 30 45
39 63 10 19 19 32 22 30 2 -3 8 -29 14 -59 20 -102 60 -217 95 -267 l35 -51
-29 -21 c-43 -30 -81 -113 -81 -175 0 -29 3 -55 6 -58 4 -3 8 -22 9 -41 2 -45
44 -108 97 -146 113 -82 166 22 68 134 -27 30 -29 37 -16 42 9 3 16 16 16 28
0 12 7 44 16 69 l16 47 22 -32 c12 -18 30 -35 41 -37 33 -6 63 -31 95 -79 40
-60 40 -86 2 -77 -37 8 -58 -14 -42 -44 6 -12 21 -21 33 -21 41 0 48 -13 27
-45 -39 -60 -15 -92 42 -57 53 33 95 83 122 146 23 52 28 57 42 45 14 -11 18
-10 31 6 24 33 13 139 -21 205 -31 61 -131 169 -182 196 l-33 18 22 24 c18 19
22 35 21 80 -1 68 -43 217 -78 277 -25 42 -88 105 -106 105 -6 0 -10 17 -10
38 0 33 5 40 39 59 36 21 71 72 71 105 0 18 -31 142 -60 238 -36 122 -106 177
-214 167 -56 -5 -62 -3 -93 24 -19 16 -53 39 -76 51 -40 22 -55 23 -300 26
l-257 3 6 25 c4 15 -1 36 -14 58 l-20 33 112 7 c283 18 381 58 402 165 4 17
17 37 29 44 52 29 121 88 140 119 17 28 20 51 20 158 0 148 -15 190 -81 225
-21 11 -51 33 -66 48 -15 15 -32 27 -38 27 -6 0 -10 32 -10 83 0 110 -20 168
-80 228 -70 70 -187 107 -390 124 -146 12 -136 6 -143 82 -7 70 -27 112 -58
120 -10 3 -19 7 -19 8 0 1 18 21 40 43 53 52 55 97 8 146 -39 40 -72 50 -113
32z m79 -52 c59 -59 -10 -155 -79 -110 -30 20 -35 79 -8 108 20 22 66 24 87 2z
m-20 -230 c12 -5 16 -20 16 -60 l0 -54 -45 0 -45 0 0 54 c0 44 4 55 18 59 27
7 39 7 56 1z m26 -199 l0 -35 -60 0 -60 0 0 35 0 35 60 0 60 0 0 -35z m-172
-42 l-3 -38 104 -3 c112 -3 131 4 131 46 l0 25 103 -6 c189 -11 317 -48 379
-111 59 -59 61 -67 65 -466 4 -338 3 -368 -14 -400 -40 -78 -103 -93 -436
-111 -139 -7 -257 -7 -386 1 -292 16 -344 30 -386 100 -17 29 -20 55 -23 160
-1 69 -7 242 -12 384 -10 251 -9 261 10 302 37 76 118 113 291 133 52 6 108
13 124 15 17 1 36 4 43 5 9 1 12 -10 10 -36z m-511 -740 c-1 -76 -3 -14 -3
137 0 151 2 213 3 138 2 -76 2 -200 0 -275z m1372 199 c-1 -53 -5 -144 -9
-202 -6 -93 -7 -80 -8 103 -1 137 1 206 8 202 6 -4 9 -48 9 -103z m-1449 -93
c0 -111 -3 -168 -10 -164 -6 4 -10 72 -10 171 0 103 4 164 10 164 6 0 10 -64
10 -171z m1518 26 c0 -49 -4 -103 -8 -120 -5 -18 -8 28 -8 115 0 86 3 135 8
120 4 -14 8 -65 8 -115z m-1588 -27 c0 -77 -3 -108 -10 -98 -18 28 -12 210 7
210 2 0 3 -51 3 -112z m1649 17 c0 -33 -4 -69 -9 -80 -6 -13 -9 15 -9 80 0 65
3 93 9 80 5 -11 9 -47 9 -80z m-719 -565 c0 -6 -41 -9 -107 -8 -99 1 -103 2
-43 8 106 11 150 11 150 0z m30 -60 c0 -6 -52 -10 -135 -10 -83 0 -135 4 -135
10 0 6 52 10 135 10 83 0 135 -4 135 -10z m587 -114 l28 -24 0 -364 0 -363
-26 -56 c-33 -70 -155 -200 -213 -228 -41 -20 -59 -21 -471 -21 -411 0 -430 1
-471 20 -52 25 -190 168 -211 218 -13 30 -17 93 -20 332 -5 306 -13 390 -24
235 -5 -67 -6 -53 -3 53 3 159 9 177 66 205 30 15 100 17 675 17 l642 0 28
-24z m93 -100 c0 -25 -4 -48 -10 -51 -6 -4 -10 13 -10 44 0 28 5 51 10 51 6 0
10 -20 10 -44z m200 7 c24 -22 37 -52 65 -148 45 -155 44 -189 -5 -215 -50
-27 -100 44 -153 215 -38 126 -40 142 -14 160 33 23 73 18 107 -12z m-1761 0
c-1 -33 -17 -99 -18 -75 0 13 -6 32 -12 43 -7 15 -7 24 2 35 16 19 29 18 28
-3z m-107 -63 c-7 -50 -85 -286 -104 -312 -37 -53 -118 -46 -118 9 0 30 51
218 68 249 26 48 86 85 132 81 20 -2 24 -7 22 -27z m1715 -207 c-3 -10 -5 -4
-5 12 0 17 2 24 5 18 2 -7 2 -21 0 -30z m-1687 -60 c0 -38 -26 -210 -41 -267
-12 -50 -21 -54 -73 -32 l-33 14 17 81 c14 63 25 89 54 122 19 23 40 57 46 75
14 41 30 44 30 7z m1753 -41 c14 -22 39 -45 56 -52 18 -7 31 -20 31 -30 0 -10
3 -31 6 -47 6 -28 4 -30 -46 -41 -28 -7 -55 -12 -60 -12 -5 0 -11 35 -15 78
-3 42 -8 92 -11 110 -7 43 8 41 39 -6z m-85 -162 c8 -57 7 -68 -9 -89 -19 -23
-19 -22 -18 105 1 133 6 130 27 -16z m264 -80 c14 -10 34 -41 45 -67 22 -51
59 -200 52 -206 -2 -3 -24 -7 -49 -10 -25 -3 -39 -4 -32 -1 16 7 15 33 -3 108
-29 112 -33 119 -74 111 -20 -3 -51 -11 -69 -17 -37 -11 -36 -4 -13 -111 6
-27 17 -61 24 -75 12 -24 18 -27 62 -25 l50 3 -70 -24 c-44 -15 -74 -21 -81
-15 -12 10 -49 128 -60 191 -8 47 11 105 39 120 27 14 105 36 133 37 12 1 33
-8 46 -19z m-2014 -100 l72 -21 0 -48 c0 -71 -82 -285 -114 -297 -11 -4 -145
43 -186 65 -13 7 -28 51 -17 51 2 0 37 -11 77 -25 119 -40 123 -39 159 55 17
43 31 93 31 110 0 27 -6 34 -42 50 -51 23 -114 26 -121 6 -4 -10 7 -15 42 -20
26 -3 56 -12 66 -20 17 -12 17 -15 0 -69 -24 -78 -33 -84 -98 -61 -43 16 -53
24 -55 45 -3 27 20 131 40 183 13 33 26 32 146 -4z m1972 -24 c0 -13 -28 -26
-57 -26 -20 0 -15 28 5 33 34 9 52 7 52 -7z m27 -82 c3 -9 0 -20 -8 -25 -14
-9 -69 -13 -69 -5 0 2 -3 11 -6 19 -3 10 2 17 13 20 38 10 64 6 70 -9z m-1575
-180 c25 -13 97 -15 509 -14 303 0 489 4 507 11 15 6 45 27 66 47 28 26 24 18
-17 -29 -31 -36 -57 -69 -57 -73 0 -4 15 3 33 15 25 18 29 19 17 5 -36 -45
-53 -46 -573 -46 l-494 0 -34 23 c-32 21 -98 132 -99 166 0 7 25 -10 56 -38
31 -29 70 -59 86 -67z m1668 18 c0 -14 -13 -22 -52 -32 -29 -7 -72 -21 -96
-31 -38 -17 -43 -17 -49 -3 -8 22 17 44 79 65 71 25 118 25 118 1z m154 -162
c38 -41 46 -54 35 -61 -22 -14 -27 -12 -79 37 -36 34 -58 46 -87 49 -21 3 -56
8 -78 13 l-40 8 75 20 c88 24 92 22 174 -66z m-2494 46 c0 -3 -21 -20 -46 -38
-25 -18 -58 -49 -73 -70 -26 -35 -29 -36 -47 -23 -18 15 -18 16 16 46 65 58
150 106 150 85z m90 -44 c0 -3 -17 -20 -39 -38 -21 -18 -44 -47 -51 -64 l-13
-31 -23 22 c-13 13 -24 28 -24 35 0 13 49 52 95 76 26 14 55 14 55 0z m2080
-27 c0 -8 -10 -44 -21 -80 -21 -63 -23 -65 -55 -65 -39 0 -41 7 -18 73 23 68
94 122 94 72z m127 10 c11 -8 26 -28 31 -45 9 -25 8 -31 -8 -40 -27 -14 -26
-15 -54 37 -21 36 -24 48 -14 55 18 11 20 10 45 -7z m99 -30 c22 -24 22 -25 4
-35 -15 -8 -20 -5 -29 22 -17 48 -11 52 25 13z m-2246 -18 c0 -6 -8 -27 -17
-48 -16 -33 -21 -37 -47 -32 -23 5 -27 3 -21 -8 8 -12 6 -12 -8 0 -9 7 -17 21
-17 31 0 23 37 70 64 80 22 8 46 -4 46 -23z m132 -13 c14 -21 29 -54 33 -71
l7 -33 -44 0 c-43 0 -43 1 -61 49 -21 61 -21 77 1 90 24 15 33 10 64 -35z
m1103 36 c-4 -6 -72 -10 -170 -10 -98 0 -166 4 -170 10 -4 7 55 10 170 10 115
0 174 -3 170 -10z m-422 -61 l37 -12 0 -116 0 -116 -50 0 -50 0 0 133 c0 103
3 132 13 128 6 -2 29 -10 50 -17z m635 -106 l-3 -128 -47 -3 -48 -3 0 127 c0
70 3 125 6 122 3 -3 17 -2 32 2 64 20 63 23 60 -117z m-168 -28 c0 -138 -1
-145 -20 -145 -11 0 -29 -9 -40 -20 -18 -18 -20 -33 -20 -160 0 -114 -3 -140
-14 -140 -24 0 -73 -48 -95 -93 -19 -39 -21 -40 -21 -14 0 39 -25 94 -49 109
-20 12 -21 22 -21 150 0 130 -1 138 -22 152 -12 9 -32 16 -43 16 -19 0 -20 7
-23 125 l-3 125 159 0 c144 0 162 2 183 20 13 10 25 19 27 20 1 0 2 -65 2
-145z m1034 114 c-3 -5 -14 -9 -25 -9 -16 0 -18 3 -7 19 9 15 16 17 25 9 7 -5
10 -14 7 -19z m130 -15 c12 -31 7 -104 -8 -104 -14 0 -32 92 -21 110 9 15 22
12 29 -6z m-2769 -29 c-3 -42 -19 -125 -25 -125 -18 0 -28 88 -14 125 7 17 39
17 39 0z m113 -10 c2 -2 -4 -29 -14 -59 -13 -40 -22 -55 -32 -51 -7 3 -18 5
-24 5 -13 0 -4 81 12 111 9 16 14 17 33 8 12 -7 23 -13 25 -14z m2556 -2 c3
-10 6 -34 8 -53 3 -33 1 -35 -28 -38 -28 -3 -32 1 -42 35 -16 54 -16 57 10 65
38 10 46 9 52 -9z m-2485 -32 c9 -6 11 -19 6 -42 -12 -61 -16 -69 -36 -69 -22
0 -26 37 -8 89 12 33 16 36 38 22z m2111 -66 c0 -41 -13 -45 -36 -10 -18 28
-12 45 17 45 15 0 19 -7 19 -35z m-1799 10 c1 -17 -18 -17 -25 0 -4 11 -1 15
10 13 8 -2 15 -7 15 -13z m-1 -34 c0 -13 -40 -61 -51 -61 -15 0 -10 37 7 54
17 17 44 22 44 7z m-420 -65 c0 -28 -17 -8 -25 29 -6 29 -6 29 9 11 9 -11 16
-29 16 -40z m2590 48 c0 -16 -43 -74 -50 -69 -8 5 1 42 16 66 6 10 34 12 34 3z
m-303 -27 c15 -11 8 -27 -11 -27 -20 0 -50 26 -42 38 7 11 31 6 53 -11z
m-1940 -14 c2 -6 -4 -13 -13 -17 -21 -8 -26 -3 -18 18 7 18 25 17 31 -1z m755
-93 l89 0 -3 -102 -3 -103 -130 0 -130 0 -3 95 c-3 107 7 126 62 116 16 -3 69
-6 118 -6z m678 -105 l0 -105 -114 0 c-63 0 -121 -3 -130 -6 -14 -5 -16 7 -16
98 0 58 3 108 7 111 3 4 62 7 130 7 l123 0 0 -105z m-593 -191 c48 -23 60 -47
68 -136 5 -63 4 -78 -7 -78 -8 0 -20 16 -27 35 -31 86 -100 127 -216 128 -123
1 -185 -37 -211 -130 l-14 -48 3 77 c3 88 20 121 78 150 48 25 275 26 326 2z
m629 -4 c53 -26 74 -68 74 -147 0 -76 -15 -101 -23 -38 -10 96 -70 138 -189
133 -68 -3 -81 -6 -115 -34 -21 -16 -48 -49 -60 -73 l-22 -43 -6 36 c-11 58 3
107 41 142 40 38 50 41 168 43 72 1 98 -3 132 -19z m-699 -97 c37 -17 73 -65
73 -95 0 -17 -15 -18 -185 -18 -128 0 -185 3 -185 11 0 23 33 78 55 93 58 38
172 43 242 9z m624 17 c44 -12 87 -56 95 -98 l7 -32 -59 -1 c-73 -2 -248 2
-252 6 -9 9 15 60 40 85 44 44 103 58 169 40z m-322 -107 c1 -17 -3 -35 -9
-38 -6 -4 -10 16 -9 52 0 42 3 52 9 38 5 -11 9 -34 9 -52z m-123 -125 l27 -33
-298 -3 c-164 -1 -300 0 -303 3 -3 3 7 19 23 35 l29 30 247 0 247 0 28 -32z
m605 6 c12 -12 18 -27 15 -33 -5 -8 -86 -11 -256 -11 -242 0 -250 1 -260 21
-9 17 -8 23 7 35 14 11 62 13 245 11 218 -2 228 -3 249 -23z"/>
<path d="M2138 4180 c-135 -23 -201 -70 -213 -152 -3 -24 -5 -83 -3 -133 3
-76 6 -90 21 -93 15 -3 17 7 17 113 0 166 10 180 163 225 48 14 88 30 88 35 0
13 -17 14 -73 5z"/>
<path d="M2147 3919 c-54 -8 -127 -51 -127 -74 0 -19 -2 -19 62 10 60 27 111
34 171 21 30 -7 37 -5 37 8 0 31 -67 47 -143 35z"/>
<path d="M2794 3920 c-17 -6 -37 -17 -44 -25 -18 -22 10 -30 56 -15 44 15 99
7 159 -22 77 -37 70 4 -8 43 -46 24 -120 32 -163 19z"/>
<path d="M2104 3741 c-57 -26 -96 -80 -102 -141 -6 -65 2 -93 39 -134 84 -96
233 -77 288 36 46 96 9 192 -94 239 -50 23 -79 23 -131 0z m70 -97 c30 -29 13
-75 -31 -89 -26 -7 -63 24 -63 54 0 27 26 51 55 51 13 0 31 -7 39 -16z"/>
<path d="M2815 3748 c-73 -27 -125 -96 -125 -168 0 -111 122 -204 225 -170
142 47 171 227 49 312 -45 32 -106 42 -149 26z m59 -104 c22 -21 20 -50 -4
-74 -25 -25 -31 -25 -64 1 -30 24 -32 36 -10 67 18 26 56 29 78 6z"/>
<path d="M2370 3320 c0 -19 6 -20 161 -20 147 0 160 1 157 18 -3 15 -20 17
-161 20 -152 2 -157 2 -157 -18z"/>
<path d="M2199 2621 l-39 -39 0 -237 c0 -274 4 -290 75 -325 42 -20 56 -21
373 -18 440 4 408 -21 418 324 8 257 4 276 -59 314 -30 19 -52 20 -381 20
l-348 0 -39 -39z m731 -26 c38 -20 50 -43 50 -97 l0 -43 -18 35 c-23 46 -70
71 -146 77 -80 7 -161 -11 -204 -43 -30 -23 -35 -24 -50 -11 -49 43 -164 65
-251 48 -69 -14 -93 -46 -101 -133 l-7 -73 -1 90 c-1 97 9 129 49 151 37 21
639 20 679 -1z m-423 -91 c23 -13 49 -34 57 -46 l15 -21 42 37 c51 47 95 66
151 66 82 0 148 -66 148 -148 0 -86 -34 -119 -183 -172 -57 -21 -101 -44 -124
-66 l-36 -34 -31 23 c-17 13 -73 45 -123 71 -94 48 -148 96 -159 141 -10 41 5
93 38 130 51 59 123 66 205 19z m501 -219 c0 -38 -3 -92 -8 -120 -5 -37 -7
-15 -8 90 0 86 3 132 8 120 5 -11 9 -51 8 -90z m-811 -107 c-2 -18 -4 -6 -4
27 0 33 2 48 4 33 2 -15 2 -42 0 -60z m713 42 c0 -5 -4 -10 -9 -10 -5 0 -18
-3 -28 -6 -16 -5 -16 -4 1 10 23 18 36 20 36 6z m-33 -102 c-4 -13 -77 -19
-77 -7 0 13 15 19 48 19 22 0 32 -4 29 -12z"/>
<path d="M2007 2612 c-35 -38 -5 -102 48 -102 25 0 65 31 65 51 0 15 -21 53
-34 61 -20 14 -63 8 -79 -10z"/>
<path d="M3096 2611 c-25 -28 -17 -72 16 -90 25 -14 29 -14 55 5 15 12 29 31
31 43 8 51 -66 82 -102 42z"/>
<path d="M2101 1976 c-7 -8 -11 -25 -9 -38 2 -18 9 -23 32 -23 36 0 56 27 40
53 -14 22 -48 27 -63 8z"/>
<path d="M3032 1978 c-7 -7 -12 -22 -12 -35 0 -27 42 -42 65 -23 28 23 11 70
-25 70 -9 0 -21 -5 -28 -12z"/>
<path d="M2209 4661 c-75 -75 -1 -206 98 -174 33 11 73 66 73 99 0 91 -108
138 -171 75z m117 -37 c22 -32 10 -72 -27 -93 -59 -33 -108 50 -59 99 28 28
66 26 86 -6z"/>
</g>
</svg>